<?xml version="1.0" encoding="UTF-8" standalone="no"?>
<!-- Created with Inkscape (http://www.inkscape.org/) -->

<svg
   xmlns:dc="http://purl.org/dc/elements/1.1/"
   xmlns:cc="http://creativecommons.org/ns#"
   xmlns:rdf="http://www.w3.org/1999/02/22-rdf-syntax-ns#"
   xmlns:svg="http://www.w3.org/2000/svg"
   xmlns="http://www.w3.org/2000/svg"
   xmlns:sodipodi="http://sodipodi.sourceforge.net/DTD/sodipodi-0.dtd"
   xmlns:inkscape="http://www.inkscape.org/namespaces/inkscape"
   version="1.1"
   id="svg2"
   width="1706.6667"
   height="377.33334"
   viewBox="0 0 1706.6667 377.33334"
   sodipodi:docname="cyvy_logo.svg"
   inkscape:version="0.92.4 (f8dce91, 2019-08-02)">
  <metadata
     id="metadata8">
    <rdf:RDF>
      <cc:Work
         rdf:about="">
        <dc:format>image/svg+xml</dc:format>
        <dc:type
           rdf:resource="http://purl.org/dc/dcmitype/StillImage" />
        <dc:title></dc:title>
      </cc:Work>
    </rdf:RDF>
  </metadata>
  <defs
     id="defs6" />
  <sodipodi:namedview
     pagecolor="#ffffff"
     bordercolor="#666666"
     borderopacity="1"
     objecttolerance="10"
     gridtolerance="10"
     guidetolerance="10"
     inkscape:pageopacity="0"
     inkscape:pageshadow="2"
     inkscape:window-width="1280"
     inkscape:window-height="1025"
     id="namedview4"
     showgrid="false"
     inkscape:zoom="0.43242185"
     inkscape:cx="442.69971"
     inkscape:cy="147.94523"
     inkscape:window-x="0"
     inkscape:window-y="27"
     inkscape:window-maximized="0"
     inkscape:current-layer="svg2" />
  <g
     id="g73">
    <path
       sodipodi:nodetypes="ccscscccscccccscccccccccscccccsccscccscccccsccccscsccscccsccsccccsccccscscccccccccccccscccccscccccccccsscscccscccccssc"
       style="fill:#01b6a4;stroke-width:1.33333337"
       d="m 1554.9684,329.78071 0.3771,-15 32,-0.66667 c 30.1868,-0.62889 32.3609,-0.84439 38.3696,-3.80316 12.2714,-6.04269 16.9637,-16.48233 16.9637,-37.74208 0,-14.89896 -0.8576,-15.8348 -8.8935,-9.70546 -12.4233,9.47564 -29.5481,13.51542 -47.7204,11.25726 -23.0769,-2.86766 -35.2224,-10.616 -42.8549,-27.3399 -5.398,-11.82788 -5.9788,-20.506 -5.5772,-83.33333 l 0.3793,-59.33333 h 14.6667 14.6667 l 0.6666,60.66666 c 0.7338,66.76375 0.7054,66.53542 9.1366,73.62984 6.5538,5.51471 16.6309,7.15958 32.7957,5.35322 13.6925,-1.5301 24.2125,-4.28876 29.7217,-7.79394 l 2.9874,-1.90065 0.346,-64.97757 0.346,-64.97756 15,-0.37701 15,-0.377 -0.02,94.37701 c -0.021,102.21431 -0.1,103.47497 -7.3508,117.78375 -4.7875,9.44748 -11.336,16.19894 -20.3958,21.02778 -13.2988,7.08815 -21.0761,8.19044 -57.9441,8.21243 l -33.0436,0.0197 0.3769,-15 z M 906.86359,273.11404 c -0.8805,-1.65363 -57.5367,-188.725742 -71.6763,-236.666672 -0.6274,-2.12706 0.6703,-2.33334 14.6785,-2.33334 h 15.3667 l 2.6425,9 c 1.4534,4.95 8.4254,28.80001 15.4933,53.00001 7.0679,24.200002 19.4175,66.483282 27.4435,93.962842 8.0259,27.47956 15.1837,50.55384 15.906,51.27618 0.8623,0.86226 1.9248,0.64603 3.0935,-0.6295 0.9791,-1.06858 15.2045,-47.99286 31.612,-104.27619 l 29.8319,-102.333342 h 15.18971 15.1896 l -0.9093,3.66667 c -3.1368,12.64832 -70.55111,234.647402 -71.66591,236.000002 -0.9864,1.19678 -6.9532,1.66667 -21.1635,1.66667 -17.4853,0 -19.9345,-0.27172 -21.0322,-2.33333 z m 183.01291,0.88228 c -14.2589,-1.66411 -23.7942,-5.76563 -31.9019,-13.72231 -9.5951,-9.4164 -12.8841,-18.48097 -12.8783,-35.49331 0.012,-34.23678 17.846,-49.87618 56.9158,-49.91085 18.3529,-0.0163 26.7272,2.30248 37.8784,10.48821 3.5634,2.61579 7.1371,4.75598 7.9415,4.75598 2.4402,0 3.2602,-6.37804 2.4426,-18.99858 -1.3631,-21.03842 -9.4705,-31.94229 -26.4593,-35.58574 -3.6306,-0.77863 -18.8912,-1.41568 -33.9125,-1.41568 h -27.3113 l 0.377,-15 0.377,-15 32.6666,0.11498 c 35.176,0.12383 42.813,1.20265 56.0703,7.92062 8.6014,4.35867 17.7164,13.84699 21.9993,22.90034 6.5185,13.7788 7.3283,23.62031 6.9455,84.40682 l -0.3484,55.3239 h -12.6667 -12.6666 l -2.6397,-7.66666 c -3.0569,-8.87844 -5.2883,-9.65592 -11.8345,-4.12342 -6.1212,5.17331 -17.0794,9.63948 -27.2665,11.11291 -9.9743,1.44263 -10.4676,1.4404 -23.7283,-0.1072 z m 44.9587,-33.33844 c 13.9733,-3.77042 15.8436,-5.61455 15.8436,-15.62234 0,-4.25984 -0.75,-8.75768 -1.6667,-9.99521 -4.1325,-5.57907 -29.3402,-10.93655 -46.9773,-9.98427 -17.8319,0.9628 -26.007,7.0959 -26.0177,19.51892 -0.01,9.57898 5.7667,16.21723 16.5692,19.04607 7.0377,1.84297 30.5481,0.19404 42.2489,-2.96317 z m 86.5103,-85.83351 V 34.114028 h 15.3404 15.3404 l -0.3404,120.333342 -0.3404,120.33333 -15,0.377 -15,0.377 z m 70.2222,119.73411 c -0.4889,-0.48888 -0.8889,-54.78888 -0.8889,-120.66667 V 34.114028 h 15.3333 15.3334 V 154.7807 275.44737 h -14.4445 c -7.9444,0 -14.8444,-0.4 -15.3333,-0.88889 z m 115.4128,-0.62924 c -24.2517,-3.507 -38.2261,-15.88364 -43.58,-38.59738 -2.89,-12.26034 -2.89,-79.50864 0,-91.76898 4.0311,-17.10172 13.9947,-29.44819 27.9903,-34.68463 19.0017,-7.10944 56.9808,-7.08207 76.0559,0.0548 10.6808,3.99623 21.6265,14.90075 25.955,25.85747 2.9051,7.35357 3.197,10.30071 3.6628,36.99017 l 0.5064,29 h -50.6841 c -58.2416,1e-5 -54.8747,-0.72909 -54.8747,11.88335 0,10.04432 2.9383,19.52924 7.5368,24.32905 6.5639,6.8512 12.9868,7.78762 53.4156,7.78762 h 36.4683 l -0.3769,15 -0.3771,15 -36.6667,0.17909 c -20.1666,0.0985 -40.4309,-0.36525 -45.0316,-1.03056 z m 58.0983,-97.4152 c 2.3453,-2.3454 2.0295,-20.12447 -0.4636,-26.0913 -2.4913,-5.96264 -6.5573,-10.5038 -11.9364,-13.33144 -5.3797,-2.82801 -30.4727,-3.89261 -40.2383,-1.70716 -13.7524,3.07764 -20.4284,13.1682 -20.4284,30.87666 0,12.23368 -1.2141,11.85324 37.8286,11.85324 24.3852,0 34.0782,-0.44012 35.2381,-1.6 z"
       id="path42"
       inkscape:connector-curvature="0" />
    <path
       style="fill:#007ec0;stroke-width:1.33333337"
       d="m 227.0662,342.99007 c -0.40657,-1.05951 -0.5653,-7.58138 -0.35276,-14.49303 l 0.38646,-12.56664 31.33333,-0.68033 c 34.05842,-0.73951 37.80626,-1.48083 45.78878,-9.05707 7.69618,-7.30445 9.40961,-12.67821 9.96812,-31.2626 0.49124,-16.34578 0.40706,-17 -2.18736,-17 -1.48406,0 -4.39431,1.41949 -6.46723,3.15442 -10.80371,9.04214 -27.46327,13.72947 -44.19049,12.4334 -26.43517,-2.04824 -41.97842,-12.9395 -49.06942,-34.38328 -2.12315,-6.4206 -2.43445,-14.13225 -2.86093,-70.87121 l -0.47855,-63.66667 h 14.74853 14.74855 v 57.758 c 0,63.244 0.44828,67.62603 7.66333,74.91019 5.95228,6.00929 11.58914,7.65913 25.82945,7.56 13.5985,-0.0947 27.1664,-2.6256 36.71253,-6.84831 l 5.79469,-2.56326 v -65.40831 -65.40831 h 14.66667 14.66667 l -0.0197,93.66667 c -0.0215,102.03612 -0.1196,103.54575 -7.6266,117.3386 -6.85621,12.59711 -17.186,20.47104 -33.68702,25.67812 -10.30195,3.25088 -74.21921,4.70078 -75.36703,1.70962 z M 73.307564,271.8825 c -4.65245,-1.00974 -11.08221,-3.10576 -14.28835,-4.65782 -8.51296,-4.12106 -18.36715,-15.54788 -22.06438,-25.58562 -3.06011,-8.30801 -3.08859,-8.95817 -3.54407,-80.89261 -0.30631,-48.37697 0.0292,-75.67399 1.00802,-82.00002 2.77853,-17.958 11.21824,-30.9037 24.61402,-37.7553 11.26676,-5.7626 22.861226,-6.9633 67.733756,-7.0142 l 41,-0.047 v 14.6666 14.6667 l -41,0.01 c -25.80172,0 -42.97701,0.5536 -46.33333,1.4808 -7.768406,2.1461 -14.741816,10.0122 -16.654936,18.787 -1.08419,4.97284 -1.41172,27.14784 -1.10861,75.05805 l 0.43022,68 3.64782,6.20527 c 2.62539,4.46603 5.42823,7.08201 10,9.33333 6.190466,3.04844 7.429816,3.13976 48.685506,3.58732 l 42.33333,0.45926 v 13.87408 13.87408 l -43,-0.106 C 93.5855,273.74962 79.44153,273.2158 73.307564,271.88452 Z M 385.0999,153.9304 V 33.93043 h 14.6482 14.64819 l 0.35181,42.9821 c 0.402,49.11511 -0.11693,47.36955 11.58432,38.963 9.24307,-6.64048 18.47383,-9.90314 30.68146,-10.84453 28.28437,-2.18113 50.60632,9.17486 59.04156,30.03661 2.96898,7.34279 3.04446,8.68637 3.04446,54.19612 0,45.50975 -0.0755,46.85333 -3.04446,54.19612 -8.43524,20.86175 -30.75719,32.21773 -59.04156,30.0366 -12.20763,-0.94137 -21.43839,-4.20404 -30.68146,-10.84452 -3.73195,-2.68113 -7.78596,-4.68476 -9.00893,-4.45251 -1.39212,0.26439 -3.13103,3.28448 -4.65035,8.07664 l -2.42675,7.65434 H 397.67314 385.0999 Z m 88.9167,89.13802 c 6.24297,-1.89468 11.0939,-6.21413 13.8882,-12.36656 2.20901,-4.86378 2.46988,-9.24028 2.46988,-41.43813 0,-32.10924 -0.2647,-36.57641 -2.44908,-41.33333 -2.95052,-6.42532 -5.88346,-9.18528 -12.85754,-12.09923 -12.18801,-5.09248 -49.24397,-0.52121 -58.30149,7.19213 -2.13544,1.81854 -2.33334,5.74023 -2.33334,46.24043 0,50.79601 -1.1142,46.57879 13.55318,51.29843 14.75423,4.7476 35.01084,5.85053 46.03019,2.50626 z m 127.61905,28.881 c -22.53204,-4.90209 -35.76071,-19.34309 -39.14008,-42.72706 -0.73856,-5.11058 -1.34284,-23.09196 -1.34284,-39.95863 0,-16.86667 0.60428,-34.84805 1.34284,-39.95863 3.5506,-24.56873 18.05131,-39.2333 42.94723,-43.43254 12.7967,-2.15844 47.35524,-0.99062 56.52505,1.91012 15.34728,4.85491 26.43117,15.90856 31.09584,31.01098 2.33115,7.5474 2.70289,12.39922 2.70289,35.27719 v 26.52621 h -51.06666 c -37.94075,0 -51.47793,0.41126 -52.66667,1.6 -0.88001,0.88 -1.60001,4.75047 -1.60001,8.60104 0,11.27983 2.4845,20.16535 7.11221,25.43602 7.47127,8.5093 9.29396,8.84066 51.8878,9.43312 l 38.33333,0.53318 v 13.86499 13.86499 l -39,-0.106 c -27.06356,-0.0736 -41.48857,-0.64742 -47.13093,-1.87498 z m 64.90615,-97.63786 c 1.67488,-4.40526 0.33329,-19.19451 -2.33099,-25.6963 -4.84161,-11.81526 -13.17823,-15.37762 -35.77756,-15.28828 -9.19125,0.0363 -18.09031,0.77723 -20.91204,1.74104 -7.163,2.44664 -13.82856,10.46227 -15.61083,18.77268 -1.94448,9.0667 -1.88209,20.48475 0.12293,22.4897 1.16492,1.16492 11.32586,1.6 37.36634,1.6 h 35.76633 l 1.37588,-3.61884 z m 70.55812,14.95217 v -84.66667 h 12.55556 12.55554 l 2.55494,7.66667 c 1.48785,4.46464 3.43255,7.83694 4.65623,8.07435 1.1557,0.22423 6.00757,-2.26667 10.78194,-5.53533 9.27547,-6.35023 21.92803,-10.20569 33.49233,-10.20569 h 6.0701 v 13.89388 13.89387 l -8.99998,0.76297 c -14.04111,1.19032 -26.17063,3.20588 -33.21393,5.51916 -11.87199,3.8992 -11.1194,-0.9341 -11.1194,71.41116 v 63.8523 h -14.66667 -14.66666 z"
       id="path38"
       inkscape:connector-curvature="0" />
  </g>
</svg>
