<?xml version="1.0" encoding="UTF-8" standalone="no"?>
<!-- Created with Inkscape (http://www.inkscape.org/) -->

<svg
   xmlns:dc="http://purl.org/dc/elements/1.1/"
   xmlns:cc="http://creativecommons.org/ns#"
   xmlns:rdf="http://www.w3.org/1999/02/22-rdf-syntax-ns#"
   xmlns:svg="http://www.w3.org/2000/svg"
   xmlns="http://www.w3.org/2000/svg"
   xmlns:sodipodi="http://sodipodi.sourceforge.net/DTD/sodipodi-0.dtd"
   xmlns:inkscape="http://www.inkscape.org/namespaces/inkscape"
   version="1.1"
   id="svg2"
   xml:space="preserve"
   width="737.008"
   height="188.976"
   viewBox="0 0 737.008 188.976"
   sodipodi:docname="uni_logo.svg"
   inkscape:version="0.92.4 (f8dce91, 2019-08-02)"><metadata
     id="metadata8"><rdf:RDF><cc:Work
         rdf:about=""><dc:format>image/svg+xml</dc:format><dc:type
           rdf:resource="http://purl.org/dc/dcmitype/StillImage" /><dc:title></dc:title></cc:Work></rdf:RDF></metadata><defs
     id="defs6"><clipPath
       clipPathUnits="userSpaceOnUse"
       id="clipPath18"><path
         d="M 0,141.732 H 552.756 V 0 H 0 Z"
         id="path16"
         inkscape:connector-curvature="0" /></clipPath></defs><sodipodi:namedview
     pagecolor="#ffffff"
     bordercolor="#666666"
     borderopacity="1"
     objecttolerance="10"
     gridtolerance="10"
     guidetolerance="10"
     inkscape:pageopacity="0"
     inkscape:pageshadow="2"
     inkscape:window-width="640"
     inkscape:window-height="480"
     id="namedview4"
     showgrid="false"
     inkscape:zoom="0.51831188"
     inkscape:cx="368.504"
     inkscape:cy="94.487999"
     inkscape:window-x="502"
     inkscape:window-y="289"
     inkscape:window-maximized="0"
     inkscape:current-layer="g10" /><g
     id="g10"
     inkscape:groupmode="layer"
     inkscape:label="UT_WBMW_Rot_4C"
     transform="matrix(1.3333333,0,0,-1.3333333,0,188.976)"><g
       id="g12"><g
         id="g14"
         clip-path="url(#clipPath18)"><g
           id="g20"
           transform="translate(295.9902,140.3232)"><path
             d="M 0,0 C 0.946,0.011 3.023,0.168 4.689,-1.529 6.358,-3.227 6.45,-5.333 6.45,-6.37 c 0,-2.892 -2.374,-5.057 -5.423,-5.057 -1.259,0 -2.65,0.214 -3.11,0.49 -0.153,0.092 -0.213,0.214 -0.213,0.368 v 10.017 c 0,0.184 0.092,0.307 0.243,0.368 C -1.745,-0.092 -0.92,-0.01 0,0 m 3.551,-11.718 c 3.197,0.878 5.351,3.548 5.351,7.171 0,1.666 -0.881,3.08 -1.572,3.74 -0.501,0.472 -1.917,1.792 -5.846,1.792 -1.446,0 -4.113,-0.096 -4.945,-0.096 -0.361,0 -2.084,0.091 -3.463,0.091 -0.336,0 -0.49,-0.061 -0.49,-0.245 0,-0.123 0.123,-0.184 0.247,-0.184 0.275,0 0.797,-0.03 1.04,-0.092 1.012,-0.214 1.257,-0.704 1.319,-1.746 0.06,-0.98 0.06,-1.838 0.06,-6.617 v -5.392 c 0,-2.941 0,-5.361 -0.151,-6.648 -0.124,-0.889 -0.279,-1.563 -0.89,-1.685 -0.277,-0.061 -0.644,-0.122 -0.919,-0.122 -0.184,0 -0.246,-0.093 -0.246,-0.184 0,-0.185 0.154,-0.246 0.492,-0.246 0.917,0 2.847,0.092 2.879,0.092 0.151,0 2.081,-0.092 3.767,-0.092 0.337,0 0.491,0.092 0.491,0.246 0,0.091 -0.062,0.184 -0.245,0.184 -0.278,0 -0.951,0.061 -1.379,0.122 -0.92,0.122 -1.104,0.796 -1.196,1.685 -0.151,1.287 -0.151,3.707 -0.151,6.648 v 0.735 c 0,0.153 0.06,0.245 0.213,0.245 l 2.975,-0.046 c 0.183,0 0.345,-0.072 0.404,-0.199 0.464,-1.018 1.108,-2.736 2.034,-4.635 1.266,-2.594 1.484,-3.743 2.801,-4.448 0.797,-0.429 1.632,-0.537 3.348,-0.537 h 1.476 c 0.551,0 0.737,0.061 0.737,0.246 0,0.091 -0.124,0.187 -0.278,0.184 -0.302,-0.009 -0.81,0.077 -1.391,0.179 -0.498,0.088 -1.947,0.44 -2.841,2.118 -1.121,2.098 -2.409,5.151 -3.631,7.736 m 15.12,3.814 c 0,4.779 0,5.637 0.062,6.617 0.06,1.073 0.305,1.593 1.193,1.746 0.37,0.062 0.797,0.092 1.012,0.092 0.123,0 0.244,0.061 0.244,0.184 0,0.184 -0.153,0.245 -0.489,0.245 -0.92,0 -3.155,-0.092 -3.309,-0.092 -0.154,0 -2.084,0.092 -3.462,0.092 -0.338,0 -0.49,-0.061 -0.49,-0.245 0,-0.123 0.121,-0.184 0.244,-0.184 0.278,0 0.797,-0.03 1.043,-0.092 1.01,-0.214 1.257,-0.704 1.316,-1.746 0.063,-0.98 0.063,-1.838 0.063,-6.617 v -5.392 c 0,-2.941 0,-5.361 -0.155,-6.648 -0.121,-0.889 -0.275,-1.563 -0.888,-1.685 -0.276,-0.061 -0.642,-0.122 -0.917,-0.122 -0.184,0 -0.246,-0.093 -0.246,-0.184 0,-0.185 0.154,-0.246 0.489,-0.246 0.459,0 1.136,0.031 1.746,0.061 0.613,0 1.136,0.031 1.257,0.031 0.887,0 1.839,-0.031 3.125,-0.092 1.287,-0.03 2.88,-0.091 5.085,-0.091 1.623,0 1.717,0.122 1.929,0.827 0.247,0.888 0.46,2.726 0.46,3.064 0,0.337 -0.029,0.459 -0.183,0.459 -0.184,0 -0.245,-0.153 -0.277,-0.398 -0.091,-0.582 -0.398,-1.348 -0.796,-1.838 -0.735,-0.889 -2.082,-0.92 -3.707,-0.92 -2.389,0 -3.186,0.215 -3.676,0.705 -0.551,0.552 -0.673,2.512 -0.673,7.016 z m 15.596,-14.705 c 1.654,0 3.308,0.367 4.626,1.286 2.113,1.502 2.603,3.829 2.603,5.086 0,2.45 -0.857,4.35 -4.473,7.199 l -0.856,0.674 c -2.941,2.298 -3.739,3.401 -3.739,5.147 0,2.237 1.654,3.553 3.769,3.553 2.82,0 3.645,-1.286 3.828,-1.623 0.184,-0.337 0.368,-1.164 0.4,-1.532 0.03,-0.244 0.062,-0.398 0.246,-0.398 0.151,0 0.213,0.215 0.213,0.705 0,2.083 0.122,3.094 0.122,3.247 0,0.153 -0.06,0.215 -0.306,0.215 -0.245,0 -0.491,0.03 -1.073,0.153 -0.765,0.184 -1.654,0.306 -2.85,0.306 -3.889,0 -6.341,-2.236 -6.341,-5.514 0,-2.083 0.736,-3.983 3.985,-6.648 l 1.379,-1.134 c 2.632,-2.175 3.521,-3.401 3.521,-5.514 0,-1.961 -1.44,-4.075 -4.382,-4.075 -2.051,0 -4.073,0.858 -4.532,3.125 -0.093,0.429 -0.093,0.857 -0.093,1.133 0,0.246 -0.031,0.338 -0.213,0.338 -0.154,0 -0.216,-0.154 -0.247,-0.491 -0.029,-0.49 -0.153,-1.715 -0.153,-3.247 0,-0.827 0.032,-0.95 0.459,-1.164 1.257,-0.613 2.666,-0.827 4.107,-0.827 m -59.085,0.428 c 0.276,0 0.459,0.062 0.459,0.246 0,0.122 -0.092,0.184 -0.307,0.184 h -0.306 c -0.52,0 -1.164,0.275 -1.164,0.888 0,0.551 0.154,1.287 0.429,2.052 l 1.838,5.423 c 0.063,0.153 0.153,0.245 0.307,0.245 h 6.585 c 0.155,0 0.215,-0.061 0.277,-0.184 l 2.848,-7.536 c 0.185,-0.49 0,-0.766 -0.183,-0.827 -0.121,-0.031 -0.215,-0.092 -0.215,-0.215 0,-0.183 0.338,-0.183 0.921,-0.214 2.112,-0.062 4.35,-0.062 4.808,-0.062 0.338,0 0.613,0.062 0.613,0.246 0,0.153 -0.123,0.184 -0.304,0.184 -0.309,0 -0.767,0.03 -1.227,0.183 -0.644,0.184 -1.534,0.674 -2.635,3.401 -1.869,4.656 -6.678,17.309 -7.138,18.474 -0.368,0.949 -0.491,1.102 -0.674,1.102 -0.184,0 -0.307,-0.183 -0.674,-1.195 l -6.953,-19.025 c -0.459,-1.271 -0.959,-2.288 -1.92,-2.703 -0.799,0.269 -1.594,0.876 -2.606,2.011 -2.302,2.587 -7.087,8.694 -8.224,10.25 0.645,0.767 6.01,6.006 6.775,6.741 1.379,1.317 2.053,2.083 3.311,2.635 0.611,0.275 1.256,0.428 1.715,0.428 0.244,0 0.306,0.061 0.306,0.215 0,0.153 -0.123,0.214 -0.461,0.214 -0.765,0 -2.787,-0.092 -2.939,-0.092 -0.736,0 -1.686,0.092 -2.299,0.092 -0.213,0 -0.367,-0.061 -0.367,-0.214 0,-0.122 0.121,-0.184 0.275,-0.245 0.246,-0.092 0.399,-0.276 0.399,-0.644 0,-0.521 -0.797,-1.317 -1.655,-2.205 -1.103,-1.195 -6.648,-6.832 -7.167,-7.414 l -0.123,1.838 c 0,4.779 0,5.637 0.06,6.617 0.063,1.073 0.307,1.594 1.133,1.746 0.369,0.062 0.553,0.092 0.768,0.092 0.123,0 0.244,0.061 0.244,0.184 0,0.184 -0.152,0.245 -0.49,0.245 -0.918,0 -2.696,-0.092 -2.971,-0.092 -0.184,0 -1.992,0.092 -3.371,0.092 -0.336,0 -0.49,-0.061 -0.49,-0.245 0,-0.123 0.123,-0.184 0.246,-0.184 0.275,0 0.797,-0.03 1.041,-0.092 1.011,-0.214 1.256,-0.704 1.318,-1.746 0.061,-0.98 0.061,-1.838 0.061,-6.617 v -5.392 c 0,-2.941 0,-5.361 -0.153,-6.648 -0.123,-0.889 -0.275,-1.562 -0.89,-1.685 -0.276,-0.061 -0.643,-0.122 -0.918,-0.122 -0.184,0 -0.244,-0.093 -0.244,-0.184 0,-0.184 0.152,-0.246 0.49,-0.246 0.918,0 2.695,0.093 2.941,0.093 0.244,0 2.022,-0.093 3.522,-0.093 0.338,0 0.49,0.093 0.49,0.246 0,0.091 -0.061,0.184 -0.244,0.184 -0.276,0 -0.768,0.061 -1.196,0.122 -0.917,0.123 -1.101,0.796 -1.195,1.685 -0.152,1.287 -0.152,3.707 -0.152,6.648 l 0.015,2.98 c 0.69,-0.955 3.523,-4.736 5.398,-7.107 1.629,-2.064 2.848,-3.524 4.157,-4.244 0.556,-0.305 0.843,-0.52 2.265,-0.52 0,0 2.014,0.103 3.086,0.103 1.02,0 2.018,-0.097 2.754,-0.097 m 1.592,10.141 c -0.092,0 -0.152,0.061 -0.092,0.215 l 2.697,8.271 c 0.153,0.46 0.307,0.46 0.459,0 l 2.91,-8.271 c 0.031,-0.123 0.031,-0.215 -0.123,-0.215 z m -98.577,-6.771 c -0.552,-1.531 -1.164,-2.696 -2.574,-2.879 -0.245,-0.031 -0.674,-0.061 -0.889,-0.061 -0.152,0 -0.275,-0.062 -0.275,-0.184 0,-0.185 0.184,-0.246 0.582,-0.246 1.44,0 3.125,0.092 3.462,0.092 0.337,0 1.654,-0.092 2.39,-0.092 0.275,0 0.459,0.061 0.459,0.246 0,0.122 -0.092,0.184 -0.306,0.184 h -0.307 c -0.521,0 -1.164,0.275 -1.164,0.888 0,0.551 0.154,1.287 0.429,2.052 l 1.838,5.423 c 0.061,0.153 0.153,0.245 0.306,0.245 h 6.587 c 0.154,0 0.215,-0.062 0.276,-0.184 l 2.849,-7.536 c 0.184,-0.491 0,-0.766 -0.184,-0.827 -0.122,-0.031 -0.214,-0.092 -0.214,-0.215 0,-0.184 0.337,-0.184 0.919,-0.215 2.114,-0.061 4.35,-0.061 4.809,-0.061 0.338,0 0.613,0.061 0.613,0.246 0,0.153 -0.122,0.184 -0.305,0.184 -0.308,0 -0.767,0.03 -1.227,0.183 -0.643,0.184 -1.531,0.674 -2.634,3.401 -1.869,4.656 -6.679,17.309 -7.138,18.473 -0.368,0.95 -0.49,1.103 -0.674,1.103 -0.184,0 -0.306,-0.183 -0.674,-1.195 z m 4.288,6.771 c -0.091,0 -0.153,0.061 -0.091,0.215 l 2.696,8.271 c 0.153,0.459 0.306,0.459 0.459,0 l 2.91,-8.271 c 0.031,-0.123 0.031,-0.215 -0.122,-0.215 z M -162.436,0 c 0.946,0.011 3.025,0.168 4.69,-1.529 1.667,-1.698 1.761,-3.804 1.761,-4.841 0,-2.892 -2.375,-5.057 -5.424,-5.057 -1.259,0 -2.65,0.214 -3.11,0.49 -0.153,0.092 -0.214,0.214 -0.214,0.368 v 10.017 c 0,0.184 0.092,0.307 0.245,0.368 0.306,0.092 1.133,0.174 2.052,0.184 m 3.55,-11.718 c 3.198,0.878 5.352,3.548 5.352,7.171 0,1.666 -0.88,3.08 -1.571,3.74 -0.503,0.472 -1.917,1.792 -5.847,1.792 -1.445,0 -4.113,-0.096 -4.945,-0.096 -0.361,0 -2.083,0.091 -3.462,0.091 -0.337,0 -0.49,-0.061 -0.49,-0.245 0,-0.123 0.122,-0.184 0.245,-0.184 0.275,0 0.796,-0.03 1.041,-0.092 1.011,-0.214 1.256,-0.704 1.318,-1.746 0.061,-0.98 0.061,-1.838 0.061,-6.617 v -5.392 c 0,-2.941 0,-5.361 -0.153,-6.648 -0.122,-0.889 -0.276,-1.563 -0.889,-1.685 -0.275,-0.061 -0.643,-0.122 -0.919,-0.122 -0.184,0 -0.245,-0.093 -0.245,-0.184 0,-0.185 0.153,-0.246 0.491,-0.246 0.919,0 2.848,0.092 2.879,0.092 0.153,0 2.083,-0.092 3.769,-0.092 0.336,0 0.489,0.092 0.489,0.246 0,0.091 -0.061,0.184 -0.244,0.184 -0.276,0 -0.951,0.061 -1.379,0.122 -0.919,0.122 -1.103,0.796 -1.195,1.685 -0.153,1.287 -0.153,3.707 -0.153,6.648 v 0.735 c 0,0.153 0.061,0.245 0.214,0.245 l 2.974,-0.046 c 0.183,0 0.346,-0.072 0.403,-0.199 0.466,-1.018 1.11,-2.736 2.036,-4.635 1.266,-2.594 1.484,-3.743 2.802,-4.448 0.796,-0.429 1.631,-0.537 3.347,-0.537 h 1.477 c 0.551,0 0.735,0.061 0.735,0.246 0,0.091 -0.123,0.187 -0.276,0.184 -0.303,-0.009 -0.811,0.077 -1.392,0.179 -0.497,0.088 -1.947,0.44 -2.842,2.118 -1.119,2.098 -2.408,5.151 -3.631,7.736 m 79.539,-1.578 c 0,-2.941 0,-5.361 -0.154,-6.648 -0.121,-0.889 -0.275,-1.563 -0.889,-1.685 -0.275,-0.061 -0.642,-0.122 -0.918,-0.122 -0.183,0 -0.246,-0.093 -0.246,-0.184 0,-0.185 0.155,-0.246 0.491,-0.246 0.459,0 1.164,0.061 1.777,0.061 0.642,0.031 1.164,0.031 1.224,0.031 0.155,0 1.196,-0.092 2.543,-0.183 1.319,-0.092 2.942,-0.184 4.26,-0.184 5.207,0 7.965,2.144 9.281,3.523 1.715,1.808 3.309,4.779 3.309,8.639 0,3.646 -1.439,6.189 -2.971,7.782 -3.646,3.768 -9.252,3.492 -12.285,3.492 -1.838,0 -3.767,-0.092 -4.137,-0.092 -0.152,0 -2.084,0.092 -3.46,0.092 -0.338,0 -0.491,-0.061 -0.491,-0.245 0,-0.123 0.123,-0.184 0.244,-0.184 0.278,0 0.797,-0.03 1.043,-0.092 1.01,-0.214 1.256,-0.704 1.317,-1.746 0.062,-0.98 0.062,-1.838 0.062,-6.617 z m 2.573,5.882 c 0,2.359 0,5.484 0.031,6.525 0,0.337 0.092,0.491 0.367,0.613 0.246,0.123 1.379,0.214 1.992,0.214 3.645,0 7.137,-0.428 10.018,-3.461 1.256,-1.317 2.941,-3.83 2.941,-7.721 0,-2.818 -0.859,-5.759 -2.451,-7.321 -1.809,-1.808 -4.443,-2.85 -7.291,-2.85 -3.615,0 -4.811,0.644 -5.209,1.226 -0.244,0.337 -0.307,1.563 -0.336,2.328 -0.031,0.582 -0.062,3.401 -0.062,6.648 z M -94.531,0 c 0.945,0.011 3.024,0.168 4.69,-1.529 1.666,-1.698 1.76,-3.804 1.76,-4.841 0,-2.892 -2.375,-5.057 -5.423,-5.057 -1.26,0 -2.651,0.214 -3.11,0.49 -0.154,0.092 -0.215,0.214 -0.215,0.368 v 10.017 c 0,0.184 0.093,0.307 0.246,0.368 0.306,0.092 1.133,0.174 2.052,0.184 m 3.55,-11.718 c 3.199,0.878 5.351,3.548 5.351,7.171 0,1.666 -0.879,3.08 -1.57,3.74 -0.504,0.472 -1.918,1.792 -5.847,1.792 -1.446,0 -4.114,-0.096 -4.945,-0.096 -0.361,0 -2.084,0.091 -3.463,0.091 -0.337,0 -0.489,-0.061 -0.489,-0.245 0,-0.123 0.122,-0.184 0.244,-0.184 0.276,0 0.797,-0.03 1.042,-0.092 1.011,-0.214 1.256,-0.704 1.317,-1.746 0.062,-0.98 0.062,-1.838 0.062,-6.617 v -5.392 c 0,-2.941 0,-5.361 -0.153,-6.648 -0.123,-0.889 -0.276,-1.563 -0.889,-1.685 -0.276,-0.061 -0.643,-0.122 -0.919,-0.122 -0.184,0 -0.245,-0.093 -0.245,-0.184 0,-0.185 0.153,-0.246 0.49,-0.246 0.919,0 2.849,0.092 2.88,0.092 0.153,0 2.083,-0.092 3.768,-0.092 0.337,0 0.49,0.092 0.49,0.246 0,0.091 -0.061,0.184 -0.245,0.184 -0.275,0 -0.95,0.061 -1.378,0.122 -0.919,0.122 -1.103,0.796 -1.195,1.685 -0.154,1.287 -0.154,3.707 -0.154,6.648 v 0.735 c 0,0.153 0.061,0.245 0.215,0.245 l 2.973,-0.046 c 0.183,0 0.346,-0.072 0.404,-0.199 0.466,-1.018 1.11,-2.736 2.036,-4.635 1.265,-2.594 1.484,-3.743 2.802,-4.448 0.795,-0.429 1.63,-0.537 3.347,-0.537 h 1.477 c 0.551,0 0.734,0.061 0.734,0.246 0,0.091 -0.123,0.187 -0.275,0.184 -0.303,-0.009 -0.811,0.077 -1.393,0.179 -0.496,0.088 -1.945,0.44 -2.842,2.118 -1.119,2.098 -2.407,5.151 -3.63,7.736 m -38.116,3.814 c 0,4.779 0,5.637 0.061,6.617 0.061,1.073 0.307,1.593 1.134,1.746 0.367,0.062 0.551,0.092 0.765,0.092 0.123,0 0.246,0.061 0.246,0.184 0,0.184 -0.153,0.245 -0.49,0.245 -0.92,0 -2.85,-0.092 -3.003,-0.092 -0.153,0 -2.083,0.092 -3.462,0.092 -0.337,0 -0.49,-0.061 -0.49,-0.245 0,-0.123 0.123,-0.184 0.245,-0.184 0.276,0 0.797,-0.03 1.042,-0.092 1.011,-0.214 1.256,-0.704 1.317,-1.746 0.062,-0.98 0.062,-1.838 0.062,-6.617 v -0.643 c 0,-0.154 -0.092,-0.184 -0.184,-0.184 h -12.99 c -0.092,0 -0.184,0.03 -0.184,0.184 v 0.643 c 0,4.779 0,5.637 0.062,6.617 0.061,1.073 0.306,1.593 1.133,1.746 0.368,0.062 0.551,0.092 0.766,0.092 0.123,0 0.245,0.061 0.245,0.184 0,0.184 -0.154,0.245 -0.491,0.245 -0.918,0 -2.848,-0.092 -3.001,-0.092 -0.154,0 -2.084,0.092 -3.462,0.092 -0.338,0 -0.49,-0.061 -0.49,-0.245 0,-0.123 0.122,-0.184 0.245,-0.184 0.275,0 0.796,-0.03 1.041,-0.092 1.011,-0.214 1.256,-0.704 1.317,-1.746 0.061,-0.98 0.061,-1.838 0.061,-6.617 v -5.392 c 0,-2.941 0,-5.361 -0.152,-6.648 -0.122,-0.889 -0.276,-1.563 -0.889,-1.685 -0.275,-0.061 -0.643,-0.122 -0.919,-0.122 -0.184,0 -0.245,-0.093 -0.245,-0.184 0,-0.185 0.153,-0.246 0.49,-0.246 0.919,0 2.849,0.092 3.003,0.092 0.153,0 2.083,-0.092 3.768,-0.092 0.337,0 0.49,0.092 0.49,0.246 0,0.091 -0.062,0.184 -0.245,0.184 -0.276,0 -0.949,0.061 -1.379,0.122 -0.919,0.122 -1.103,0.796 -1.195,1.685 -0.153,1.287 -0.153,3.707 -0.153,6.648 v 3.216 c 0,0.154 0.092,0.184 0.184,0.184 h 12.99 c 0.092,0 0.184,-0.061 0.184,-0.184 v -3.216 c 0,-2.941 0,-5.361 -0.154,-6.648 -0.122,-0.889 -0.275,-1.563 -0.888,-1.685 -0.276,-0.061 -0.643,-0.122 -0.919,-0.122 -0.184,0 -0.245,-0.093 -0.245,-0.184 0,-0.185 0.153,-0.246 0.49,-0.246 0.919,0 2.849,0.092 3.002,0.092 0.153,0 2.083,-0.092 3.769,-0.092 0.336,0 0.49,0.092 0.49,0.246 0,0.091 -0.062,0.184 -0.246,0.184 -0.275,0 -0.949,0.061 -1.378,0.122 -0.919,0.122 -1.103,0.796 -1.195,1.685 -0.153,1.287 -0.153,3.707 -0.153,6.648 z m -70.808,-2.176 c 0,0.154 0.061,0.215 0.184,0.215 0.46,0 1.991,0 2.389,-0.061 0.736,-0.092 1.502,-0.184 2.543,-0.889 2.359,-1.623 2.972,-4.289 2.972,-6.127 0,-3.462 -2.665,-4.35 -4.32,-4.35 -0.551,0 -1.868,0.061 -2.696,0.459 -0.949,0.46 -0.949,0.889 -1.041,2.39 -0.031,0.46 -0.031,4.258 -0.031,6.618 z m 0,9.712 c 0,0.184 0.092,0.276 0.368,0.337 0.49,0.123 1.134,0.154 1.47,0.154 3.003,0 4.136,-2.727 4.136,-5.27 0,-1.256 -0.459,-2.359 -1.103,-3.094 -0.643,-0.736 -1.072,-0.797 -2.787,-0.797 -1.134,0 -1.686,0.092 -1.869,0.122 -0.154,0.062 -0.215,0.124 -0.215,0.338 z m -2.451,-12.928 c 0,-2.941 0,-5.361 -0.153,-6.648 -0.122,-0.889 -0.276,-1.563 -0.888,-1.685 -0.276,-0.061 -0.644,-0.122 -0.919,-0.122 -0.184,0 -0.245,-0.093 -0.245,-0.184 0,-0.185 0.152,-0.246 0.49,-0.246 0.459,0 1.164,0.061 1.777,0.061 0.643,0.031 1.164,0.031 1.225,0.031 0.123,0 0.98,-0.031 1.869,-0.092 0.888,-0.03 1.868,-0.091 2.205,-0.091 5.24,0 7.813,3.4 7.813,6.678 0,3.584 -3.033,5.76 -5.3,6.465 1.44,1.501 2.88,3.002 2.88,5.514 0,1.532 -1.104,4.595 -6.128,4.595 -1.409,0 -2.603,-0.092 -3.339,-0.092 -0.153,0 -2.083,0.092 -3.462,0.092 -0.337,0 -0.49,-0.061 -0.49,-0.245 0,-0.123 0.123,-0.184 0.245,-0.184 0.276,0 0.797,-0.03 1.042,-0.092 1.011,-0.214 1.256,-0.704 1.317,-1.746 0.061,-0.98 0.061,-1.838 0.061,-6.617 z m -17.452,0 c 0,-2.941 0,-5.361 -0.153,-6.648 -0.122,-0.889 -0.276,-1.563 -0.889,-1.685 -0.275,-0.061 -0.643,-0.122 -0.919,-0.122 -0.184,0 -0.245,-0.093 -0.245,-0.184 0,-0.185 0.153,-0.246 0.49,-0.246 0.46,0 1.165,0.061 1.777,0.061 0.643,0.031 1.164,0.031 1.226,0.031 0.459,0 1.194,-0.031 2.389,-0.092 1.195,-0.03 2.88,-0.091 5.177,-0.091 1.195,0 1.441,0 1.655,0.796 0.153,0.643 0.398,2.726 0.398,2.972 0,0.214 0,0.46 -0.183,0.46 -0.154,0 -0.215,-0.123 -0.276,-0.46 -0.215,-1.256 -0.582,-1.869 -1.379,-2.206 -0.797,-0.337 -2.144,-0.337 -2.941,-0.337 -3.002,0 -3.462,0.398 -3.554,2.512 -0.03,0.643 0,4.198 0,5.239 v 2.696 c 0,0.122 0.062,0.214 0.214,0.214 0.521,0 3.554,-0.061 4.382,-0.153 1.195,-0.123 1.471,-0.643 1.593,-1.072 0.122,-0.399 0.122,-0.705 0.122,-1.011 0,-0.153 0.062,-0.276 0.215,-0.276 0.214,0 0.214,0.337 0.214,0.582 0,0.215 0.061,1.348 0.122,1.961 0.093,1.011 0.246,1.532 0.246,1.715 0,0.184 -0.061,0.246 -0.153,0.246 -0.123,0 -0.245,-0.153 -0.46,-0.398 -0.276,-0.307 -0.704,-0.368 -1.44,-0.43 -0.704,-0.061 -4.472,-0.061 -4.871,-0.061 -0.153,0 -0.184,0.092 -0.184,0.306 v 8.456 c 0,0.214 0.062,0.307 0.184,0.307 0.337,0 3.676,-0.031 4.197,-0.093 1.655,-0.183 1.961,-0.551 2.175,-1.041 0.154,-0.368 0.184,-0.889 0.184,-1.103 0,-0.245 0.061,-0.398 0.245,-0.398 0.123,0 0.184,0.183 0.214,0.337 0.062,0.367 0.123,1.716 0.154,2.022 0.092,0.858 0.245,1.225 0.245,1.44 0,0.153 -0.03,0.276 -0.123,0.276 -0.153,0 -0.276,-0.123 -0.428,-0.154 -0.246,-0.061 -0.736,-0.122 -1.318,-0.153 -0.704,-0.031 -6.801,-0.031 -7.015,-0.031 l -1.256,0.062 c -0.675,0.03 -1.501,0.03 -2.206,0.03 -0.337,0 -0.49,-0.061 -0.49,-0.245 0,-0.123 0.122,-0.184 0.244,-0.184 0.276,0 0.797,-0.03 1.042,-0.092 1.011,-0.214 1.256,-0.704 1.317,-1.746 0.062,-0.98 0.062,-1.838 0.062,-6.617 z m 36.433,0 c 0,-2.941 0,-5.361 -0.153,-6.648 -0.122,-0.889 -0.276,-1.563 -0.889,-1.685 -0.275,-0.061 -0.643,-0.122 -0.918,-0.122 -0.184,0 -0.246,-0.093 -0.246,-0.184 0,-0.185 0.154,-0.246 0.491,-0.246 0.459,0 1.164,0.061 1.777,0.061 0.643,0.031 1.164,0.031 1.225,0.031 0.46,0 1.195,-0.031 2.39,-0.092 1.195,-0.03 2.879,-0.091 5.177,-0.091 1.195,0 1.44,0 1.654,0.796 0.154,0.643 0.399,2.726 0.399,2.972 0,0.214 0,0.46 -0.184,0.46 -0.154,0 -0.215,-0.123 -0.276,-0.46 -0.215,-1.256 -0.582,-1.869 -1.379,-2.206 -0.796,-0.337 -2.144,-0.337 -2.941,-0.337 -3.002,0 -3.461,0.398 -3.553,2.512 -0.031,0.643 0,4.198 0,5.239 v 2.696 c 0,0.122 0.061,0.214 0.214,0.214 0.521,0 3.554,-0.061 4.381,-0.153 1.195,-0.123 1.471,-0.643 1.593,-1.072 0.123,-0.399 0.123,-0.705 0.123,-1.011 0,-0.153 0.061,-0.276 0.214,-0.276 0.214,0 0.214,0.337 0.214,0.582 0,0.215 0.062,1.348 0.123,1.961 0.092,1.011 0.245,1.532 0.245,1.715 0,0.184 -0.061,0.246 -0.153,0.246 -0.122,0 -0.245,-0.153 -0.46,-0.398 -0.275,-0.307 -0.704,-0.368 -1.439,-0.43 -0.705,-0.061 -4.473,-0.061 -4.871,-0.061 -0.154,0 -0.184,0.092 -0.184,0.306 v 8.456 c 0,0.214 0.061,0.307 0.184,0.307 0.337,0 3.676,-0.031 4.197,-0.093 1.654,-0.183 1.96,-0.551 2.175,-1.041 0.153,-0.368 0.183,-0.889 0.183,-1.103 0,-0.245 0.062,-0.398 0.246,-0.398 0.122,0 0.184,0.183 0.214,0.337 0.061,0.367 0.123,1.716 0.153,2.022 0.093,0.858 0.245,1.225 0.245,1.44 0,0.153 -0.03,0.276 -0.122,0.276 -0.153,0 -0.276,-0.123 -0.429,-0.154 -0.245,-0.061 -0.735,-0.122 -1.317,-0.153 -0.705,-0.031 -6.802,-0.031 -7.016,-0.031 l -1.256,0.062 c -0.674,0.03 -1.501,0.03 -2.206,0.03 -0.337,0 -0.49,-0.061 -0.49,-0.245 0,-0.123 0.123,-0.184 0.245,-0.184 0.276,0 0.796,-0.03 1.042,-0.092 1.011,-0.214 1.255,-0.704 1.317,-1.746 0.061,-0.98 0.061,-1.838 0.061,-6.617 z m 28.552,-101.973 c 0,0.307 0.122,0.43 0.368,0.43 0.919,0 3.982,0 4.778,-0.123 1.471,-0.184 3.004,-0.367 5.087,-1.777 4.717,-3.247 5.943,-8.578 5.943,-12.254 0,-6.925 -5.331,-8.7 -8.64,-8.7 -1.102,0 -3.737,0.122 -5.392,0.918 -1.9,0.92 -1.9,1.778 -2.083,4.78 -0.061,0.919 -0.061,8.516 -0.061,13.235 z m 0,19.424 c 0,0.367 0.184,0.552 0.736,0.674 0.979,0.245 2.267,0.307 2.94,0.307 6.005,0 8.272,-5.454 8.272,-10.54 0,-2.512 -0.919,-4.718 -2.206,-6.189 -1.287,-1.47 -2.144,-1.593 -5.575,-1.593 -2.268,0 -3.371,0.185 -3.738,0.246 -0.307,0.123 -0.429,0.246 -0.429,0.673 z m -4.902,-25.856 c 0,-5.884 0,-10.724 -0.306,-13.296 -0.245,-1.778 -0.552,-3.126 -1.777,-3.371 -0.552,-0.122 -1.287,-0.245 -1.838,-0.245 -0.368,0 -0.49,-0.184 -0.49,-0.367 0,-0.369 0.305,-0.492 0.98,-0.492 0.919,0 2.328,0.123 3.553,0.123 1.288,0.063 2.329,0.063 2.452,0.063 0.245,0 1.96,-0.063 3.737,-0.186 1.777,-0.059 3.737,-0.182 4.412,-0.182 10.478,0 15.624,6.8 15.624,13.357 0,7.168 -6.066,11.518 -10.6,12.929 2.879,3.001 5.76,6.004 5.76,11.028 0,3.064 -2.206,9.192 -12.255,9.192 -2.818,0 -5.208,-0.185 -6.678,-0.185 -0.307,0 -4.167,0.185 -6.925,0.185 -0.674,0 -0.979,-0.123 -0.979,-0.492 0,-0.245 0.245,-0.367 0.49,-0.367 0.551,0 1.593,-0.061 2.083,-0.184 2.022,-0.428 2.512,-1.41 2.634,-3.493 0.123,-1.96 0.123,-3.675 0.123,-13.234 z m 40.939,10.783 c 0,9.559 0,11.274 0.123,13.234 0.123,2.145 0.613,3.187 2.267,3.493 0.735,0.123 1.103,0.184 1.532,0.184 0.245,0 0.49,0.122 0.49,0.367 0,0.369 -0.307,0.492 -0.981,0.492 -1.838,0 -5.697,-0.185 -6.004,-0.185 -0.307,0 -4.167,0.185 -6.188,0.185 -0.675,0 -0.981,-0.123 -0.981,-0.492 0,-0.245 0.245,-0.367 0.49,-0.367 0.429,0 1.225,-0.061 1.899,-0.245 1.349,-0.307 1.961,-1.349 2.083,-3.432 0.123,-1.96 0.123,-3.675 0.123,-13.234 v -10.783 c 0,-5.884 0,-10.724 -0.306,-13.296 -0.245,-1.778 -0.551,-3.126 -1.777,-3.371 -0.552,-0.122 -1.286,-0.245 -1.838,-0.245 -0.368,0 -0.49,-0.184 -0.49,-0.367 0,-0.369 0.306,-0.492 0.98,-0.492 1.838,0 5.698,0.186 6.005,0.186 0.307,0 4.166,-0.186 7.536,-0.186 0.675,0 0.98,0.186 0.98,0.492 0,0.183 -0.122,0.367 -0.49,0.367 -0.551,0 -1.898,0.123 -2.757,0.245 -1.838,0.245 -2.205,1.593 -2.389,3.371 -0.307,2.572 -0.307,7.412 -0.307,13.296 z m 18.555,9.129 c 1.961,-2.205 8.873,-9.926 15.968,-17.584 6.485,-6.985 15.293,-15.993 15.965,-16.605 3.256,-3.248 3.998,-3.921 4.49,-3.921 0.434,0 0.557,0.305 0.557,4.35 l 0.123,35.905 c 0,3.676 0.244,5.025 2.268,5.453 0.734,0.184 1.164,0.184 1.47,0.184 0.428,0 0.674,0.184 0.674,0.429 0,0.368 -0.43,0.43 -1.103,0.43 -2.512,0 -4.543,-0.185 -5.223,-0.185 -0.68,0 -3.623,0.185 -6.375,0.185 -0.734,0 -1.223,-0.062 -1.223,-0.43 0,-0.245 0.061,-0.429 0.489,-0.429 0.49,0 1.896,-0.061 2.998,-0.306 1.896,-0.491 2.324,-1.838 2.386,-5.821 l 0.674,-31.126 c -1.959,2.022 -8.627,9.496 -14.683,15.991 -9.42,10.111 -18.534,19.976 -19.455,21.017 -0.618,0.612 -1.668,1.96 -2.162,1.96 -0.493,0 -0.678,-0.674 -0.678,-3.063 l -0.062,-35.109 c 0,-5.576 -0.306,-7.352 -1.839,-7.781 -0.919,-0.307 -2.021,-0.368 -2.512,-0.368 -0.306,0 -0.49,-0.122 -0.49,-0.367 0,-0.429 0.368,-0.492 0.981,-0.492 2.757,0 5.342,0.186 5.897,0.186 0.556,0 3.009,-0.186 6.496,-0.186 0.734,0 1.101,0.123 1.101,0.492 0,0.245 -0.184,0.367 -0.489,0.367 -0.551,0 -1.896,0.061 -3.058,0.368 -1.652,0.489 -2.264,2.083 -2.386,7.106 z m 81.185,-32.47 c 0,-1.041 -0.43,-1.715 -1.225,-2.144 -1.594,-0.919 -4.779,-1.286 -6.984,-1.286 -5.637,0 -11.213,1.837 -16.053,6.555 -2.146,2.084 -6.496,8.333 -6.496,16.973 0,7.168 2.512,12.744 6.067,15.563 4.655,3.676 9.251,4.043 13.111,4.043 7.904,0 12.866,-2.633 14.399,-4.963 0.919,-1.47 1.225,-3.185 1.286,-4.044 0.06,-0.55 0.123,-0.918 0.429,-0.918 0.429,0 0.551,0.306 0.551,1.287 0,6.127 0.43,7.841 0.43,8.7 0,0.246 -0.123,0.49 -0.736,0.553 -1.532,0.059 -3.676,0.305 -4.963,0.611 -1.164,0.245 -5.514,1.042 -9.375,1.042 -4.717,0 -10.783,-0.43 -16.296,-3.86 -5.453,-3.432 -10.233,-10.355 -10.233,-20.159 0,-7.659 3.553,-14.215 7.291,-17.462 6.801,-5.943 15.502,-6.556 20.158,-6.556 3.555,0 9.069,0.674 12.99,2.757 0.734,0.429 0.796,0.552 0.796,3.308 v 6.863 c 0,2.574 0,4.412 0.122,6.373 0.123,2.143 0.613,3.186 2.267,3.492 0.736,0.122 1.104,0.184 1.531,0.184 0.246,0 0.492,0.122 0.492,0.368 0,0.367 -0.305,0.49 -0.981,0.49 -1.839,0 -5.698,-0.184 -6.005,-0.184 -0.306,0 -4.165,0.184 -6.923,0.184 -0.674,0 -0.98,-0.123 -0.98,-0.49 0,-0.246 0.246,-0.368 0.49,-0.368 0.551,0 1.594,-0.062 2.084,-0.184 2.449,-0.674 2.756,-1.349 2.756,-6.312 z m 19.18,12.558 c 0,-5.884 0,-10.724 -0.308,-13.296 -0.244,-1.778 -0.551,-3.126 -1.776,-3.371 -0.552,-0.122 -1.287,-0.245 -1.839,-0.245 -0.367,0 -0.49,-0.184 -0.49,-0.367 0,-0.369 0.306,-0.492 0.98,-0.492 0.918,0 2.328,0.123 3.554,0.123 1.287,0.063 2.329,0.063 2.452,0.063 0.918,0 2.389,-0.063 4.78,-0.186 2.388,-0.059 5.757,-0.182 10.353,-0.182 2.389,0 2.881,0 3.308,1.593 0.307,1.286 0.798,5.453 0.798,5.943 0,0.429 0,0.92 -0.367,0.92 -0.308,0 -0.431,-0.245 -0.554,-0.92 -0.427,-2.512 -1.163,-3.737 -2.755,-4.412 -1.594,-0.674 -4.29,-0.674 -5.882,-0.674 -6.004,0 -6.925,0.797 -7.109,5.024 -0.06,1.287 0,8.396 0,10.479 v 5.391 c 0,0.246 0.123,0.429 0.428,0.429 1.043,0 7.11,-0.122 8.764,-0.307 2.388,-0.245 2.942,-1.286 3.186,-2.144 0.245,-0.797 0.245,-1.409 0.245,-2.022 0,-0.306 0.121,-0.551 0.428,-0.551 0.429,0 0.429,0.675 0.429,1.164 0,0.428 0.122,2.696 0.246,3.922 0.183,2.021 0.489,3.063 0.489,3.43 0,0.368 -0.121,0.492 -0.306,0.492 -0.245,0 -0.491,-0.308 -0.918,-0.797 -0.553,-0.615 -1.411,-0.737 -2.881,-0.859 -1.409,-0.123 -8.946,-0.123 -9.743,-0.123 -0.306,0 -0.367,0.185 -0.367,0.613 v 16.912 c 0,0.428 0.123,0.612 0.367,0.612 0.676,0 7.354,-0.062 8.396,-0.184 3.309,-0.367 3.921,-1.103 4.35,-2.083 0.305,-0.736 0.367,-1.777 0.367,-2.205 0,-0.491 0.122,-0.798 0.491,-0.798 0.244,0 0.367,0.369 0.428,0.675 0.123,0.736 0.247,3.432 0.306,4.044 0.184,1.715 0.492,2.45 0.492,2.88 0,0.306 -0.062,0.551 -0.247,0.551 -0.304,0 -0.551,-0.245 -0.856,-0.307 -0.492,-0.123 -1.471,-0.244 -2.635,-0.305 -1.409,-0.062 -13.603,-0.062 -14.031,-0.062 l -2.514,0.123 c -1.347,0.062 -3.001,0.062 -4.411,0.062 -0.674,0 -0.979,-0.123 -0.979,-0.492 0,-0.245 0.244,-0.367 0.489,-0.367 0.552,0 1.593,-0.061 2.083,-0.184 2.021,-0.428 2.513,-1.41 2.635,-3.493 0.124,-1.96 0.124,-3.675 0.124,-13.234 z m 35.773,19.912 c 1.96,-2.205 8.872,-9.926 15.968,-17.584 6.484,-6.985 15.292,-15.993 15.965,-16.605 3.256,-3.248 3.996,-3.921 4.49,-3.921 0.434,0 0.558,0.305 0.558,4.35 l 0.122,35.905 c 0,3.676 0.245,5.025 2.267,5.453 0.736,0.184 1.165,0.184 1.471,0.184 0.428,0 0.673,0.184 0.673,0.429 0,0.368 -0.429,0.43 -1.103,0.43 -2.511,0 -4.543,-0.185 -5.222,-0.185 -0.679,0 -3.623,0.185 -6.375,0.185 -0.734,0 -1.223,-0.062 -1.223,-0.43 0,-0.245 0.061,-0.429 0.489,-0.429 0.49,0 1.897,-0.061 2.996,-0.306 1.897,-0.491 2.324,-1.838 2.386,-5.821 l 0.677,-31.126 c -1.96,2.022 -8.629,9.496 -14.684,15.991 -9.42,10.111 -18.533,19.976 -19.455,21.017 -0.618,0.612 -1.669,1.96 -2.163,1.96 -0.492,0 -0.677,-0.674 -0.677,-3.063 l -0.062,-35.109 c 0,-5.576 -0.308,-7.352 -1.838,-7.781 -0.921,-0.307 -2.022,-0.368 -2.515,-0.368 -0.304,0 -0.489,-0.122 -0.489,-0.367 0,-0.429 0.369,-0.492 0.982,-0.492 2.755,0 5.342,0.186 5.897,0.186 0.556,0 3.009,-0.186 6.496,-0.186 0.733,0 1.1,0.123 1.1,0.492 0,0.245 -0.183,0.367 -0.49,0.367 -0.55,0 -1.893,0.061 -3.058,0.368 -1.651,0.489 -2.261,2.083 -2.385,7.106 z m -271.879,6.005 7.705,-0.122 c 5.872,-0.123 7.34,-1.532 7.523,-3.37 l 0.062,-0.675 c 0.062,-0.858 0.188,-1.041 0.501,-1.041 0.25,0 0.438,0.245 0.438,0.797 0,0.674 0.188,4.902 0.188,6.74 0,0.366 0,0.734 -0.313,0.734 -0.251,0 -0.814,-0.183 -1.733,-0.305 -0.978,-0.184 -2.384,-0.307 -4.341,-0.307 h -22.959 c -0.735,0 -3.063,0.123 -4.841,0.307 -1.654,0.122 -2.267,0.734 -2.695,0.734 -0.246,0 -0.491,-0.797 -0.613,-1.163 -0.123,-0.49 -1.348,-5.76 -1.348,-6.373 0,-0.367 0.122,-0.552 0.306,-0.552 0.245,0 0.429,0.123 0.613,0.613 0.184,0.428 0.368,0.858 1.042,1.899 0.98,1.471 2.451,1.9 6.249,1.962 l 9.069,0.122 v -25.917 c 0,-5.884 0,-10.724 -0.307,-13.296 -0.244,-1.778 -0.551,-3.126 -1.777,-3.371 -0.55,-0.122 -1.286,-0.245 -1.838,-0.245 -0.368,0 -0.49,-0.184 -0.49,-0.367 0,-0.369 0.307,-0.492 0.981,-0.492 1.838,0 5.697,0.186 6.004,0.186 0.307,0 4.163,-0.186 7.527,-0.186 0.673,0 0.979,0.186 0.979,0.492 0,0.183 -0.123,0.367 -0.489,0.367 -0.551,0 -1.896,0.123 -2.753,0.245 -1.835,0.245 -2.201,1.593 -2.385,3.371 -0.305,2.572 -0.305,7.412 -0.305,13.296 z m 25.792,-24.074 c 0,-8.946 2.329,-13.235 5.331,-16.114 4.35,-4.105 10.539,-4.35 12.622,-4.35 3.615,0 8.21,0.612 12.622,4.534 4.902,4.35 5.637,11.703 5.637,18.32 v 6.555 c 0,9.559 0,11.274 0.123,13.236 0.122,2.145 0.613,3.124 2.267,3.491 0.735,0.123 1.103,0.185 1.531,0.185 0.246,0 0.491,0.122 0.491,0.367 0,0.368 -0.307,0.491 -0.981,0.491 -1.838,0 -4.717,-0.184 -5.147,-0.184 -0.367,0 -3.737,0.184 -6.495,0.184 -0.674,0 -0.98,-0.123 -0.98,-0.491 0,-0.245 0.245,-0.367 0.491,-0.367 0.551,0 1.593,-0.062 2.083,-0.185 2.022,-0.427 2.512,-1.409 2.634,-3.491 0.123,-1.962 0.123,-3.677 0.123,-13.236 v -7.658 c 0,-6.311 -0.735,-11.52 -3.554,-15.012 -2.205,-2.635 -5.882,-4.411 -9.619,-4.411 -3.493,0 -6.25,0.551 -9.252,3.37 -2.635,2.512 -4.596,6.311 -4.596,15.134 v 8.577 c 0,9.559 0,11.274 0.122,13.236 0.123,2.145 0.613,3.246 2.268,3.491 0.735,0.123 1.103,0.185 1.531,0.185 0.245,0 0.491,0.122 0.491,0.367 0,0.368 -0.307,0.491 -0.98,0.491 -1.839,0 -5.515,-0.184 -6.066,-0.184 -0.552,0 -4.29,0.184 -7.047,0.184 -0.674,0 -0.98,-0.123 -0.98,-0.491 0,-0.245 0.245,-0.367 0.49,-0.367 0.552,0 1.593,-0.062 2.083,-0.185 2.022,-0.427 2.512,-1.409 2.635,-3.491 0.122,-1.962 0.122,-3.677 0.122,-13.236 z m 21.903,10.826 c 0,1.655 -1.226,2.696 -2.819,2.696 -1.531,0 -2.45,-1.164 -2.45,-2.635 0,-1.899 1.531,-2.634 2.634,-2.634 1.164,0 2.635,0.735 2.635,2.573 m 0,12.315 c 0,1.655 -1.226,2.696 -2.819,2.696 -1.531,0 -2.45,-1.164 -2.45,-2.634 0,-1.9 1.531,-2.634 2.634,-2.634 1.164,0 2.635,0.734 2.635,2.572 m 117.219,36.663 c 6.411,1.758 10.727,7.11 10.727,14.371 0,3.339 -1.764,6.174 -3.15,7.496 -1.008,0.945 -3.844,3.592 -11.717,3.592 -2.899,0 -8.244,-0.194 -9.912,-0.194 -0.723,0 -4.177,0.184 -6.939,0.184 -0.675,0 -0.982,-0.123 -0.982,-0.492 0,-0.245 0.246,-0.368 0.491,-0.368 0.553,0 1.597,-0.061 2.088,-0.184 2.027,-0.43 2.517,-1.413 2.64,-3.499 0.124,-1.965 0.124,-3.685 0.124,-13.263 v -10.807 c 0,-5.894 0,-10.745 -0.307,-13.322 -0.246,-1.782 -0.555,-3.133 -1.782,-3.378 -0.553,-0.123 -1.289,-0.246 -1.842,-0.246 -0.368,0 -0.491,-0.184 -0.491,-0.367 0,-0.37 0.307,-0.492 0.982,-0.492 1.841,0 5.711,0.184 5.772,0.184 0.306,0 4.175,-0.184 7.552,-0.184 0.676,0 0.983,0.184 0.983,0.492 0,0.183 -0.123,0.367 -0.492,0.367 -0.553,0 -1.903,0.123 -2.762,0.246 -1.842,0.245 -2.211,1.596 -2.395,3.378 -0.308,2.577 -0.308,7.428 -0.308,13.322 v 1.475 c 0,0.306 0.123,0.49 0.431,0.49 l 5.957,-0.092 c 0.369,0 0.694,-0.144 0.811,-0.398 0.933,-2.04 2.225,-5.486 4.08,-9.29 2.535,-5.198 2.975,-7.502 5.615,-8.914 1.596,-0.861 3.27,-1.076 6.707,-1.076 h 2.959 c 1.106,0 1.475,0.122 1.475,0.492 0,0.183 -0.246,0.376 -0.553,0.367 -0.607,-0.016 -1.625,0.155 -2.789,0.361 -0.996,0.176 -3.902,0.881 -5.695,4.243 -2.244,4.206 -4.828,10.325 -7.278,15.506 m -219.588,-1.308 c 0,-8.969 2.335,-13.27 5.345,-16.158 4.362,-4.115 10.566,-4.361 12.655,-4.361 3.625,0 8.232,0.613 12.655,4.546 4.915,4.362 5.652,11.733 5.652,18.368 v 6.573 c 0,9.584 0,11.304 0.123,13.27 0.122,2.15 0.614,3.132 2.273,3.501 0.736,0.123 1.106,0.185 1.535,0.185 0.247,0 0.492,0.123 0.492,0.368 0,0.369 -0.307,0.492 -0.983,0.492 -1.843,0 -4.73,-0.185 -5.16,-0.185 -0.369,0 -3.748,0.185 -6.512,0.185 -0.676,0 -0.983,-0.123 -0.983,-0.492 0,-0.245 0.246,-0.368 0.491,-0.368 0.554,0 1.598,-0.062 2.089,-0.185 2.028,-0.429 2.519,-1.413 2.641,-3.501 0.124,-1.966 0.124,-3.686 0.124,-13.27 v -7.679 c 0,-6.327 -0.737,-11.549 -3.563,-15.05 -2.212,-2.642 -5.897,-4.424 -9.645,-4.424 -3.501,0 -6.267,0.554 -9.276,3.379 -2.642,2.52 -4.608,6.327 -4.608,15.174 v 8.6 c 0,9.584 0,11.304 0.123,13.27 0.123,2.15 0.614,3.255 2.273,3.501 0.737,0.123 1.106,0.185 1.535,0.185 0.246,0 0.493,0.123 0.493,0.368 0,0.369 -0.308,0.492 -0.984,0.492 -1.843,0 -5.528,-0.185 -6.081,-0.185 -0.554,0 -4.301,0.185 -7.065,0.185 -0.676,0 -0.983,-0.123 -0.983,-0.492 0,-0.245 0.246,-0.368 0.491,-0.368 0.554,0 1.598,-0.062 2.089,-0.185 2.028,-0.429 2.518,-1.413 2.641,-3.501 0.123,-1.966 0.123,-3.686 0.123,-13.27 z m 50.145,18.122 c 1.966,-2.212 8.896,-9.952 16.01,-17.632 6.501,-7.002 15.332,-16.033 16.007,-16.648 3.264,-3.255 4.007,-3.931 4.503,-3.931 0.434,0 0.557,0.307 0.557,4.362 l 0.123,35.999 c 0,3.686 0.245,5.038 2.273,5.467 0.737,0.185 1.167,0.185 1.475,0.185 0.429,0 0.676,0.184 0.676,0.43 0,0.368 -0.431,0.43 -1.107,0.43 -2.518,0 -4.555,-0.185 -5.236,-0.185 -0.681,0 -3.632,0.185 -6.392,0.185 -0.736,0 -1.226,-0.062 -1.226,-0.43 0,-0.246 0.061,-0.43 0.49,-0.43 0.492,0 1.901,-0.062 3.006,-0.308 1.901,-0.491 2.33,-1.843 2.392,-5.835 l 0.678,-31.208 c -1.966,2.027 -8.651,9.521 -14.723,16.034 -9.445,10.136 -18.583,20.026 -19.506,21.071 -0.62,0.614 -1.672,1.966 -2.167,1.966 -0.495,0 -0.681,-0.676 -0.681,-3.072 l -0.062,-35.2 c 0,-5.591 -0.307,-7.372 -1.843,-7.803 -0.922,-0.307 -2.027,-0.367 -2.519,-0.367 -0.307,0 -0.491,-0.124 -0.491,-0.369 0,-0.431 0.368,-0.492 0.983,-0.492 2.764,0 5.356,0.185 5.913,0.185 0.557,0 3.016,-0.185 6.513,-0.185 0.736,0 1.103,0.123 1.103,0.492 0,0.245 -0.184,0.369 -0.49,0.369 -0.552,0 -1.901,0.06 -3.066,0.367 -1.656,0.492 -2.27,2.089 -2.392,7.126 z m 55.837,-9.154 c 0,9.584 0,11.304 0.123,13.27 0.123,2.15 0.614,3.194 2.272,3.501 0.738,0.123 1.107,0.185 1.537,0.185 0.246,0 0.491,0.123 0.491,0.368 0,0.369 -0.307,0.492 -0.983,0.492 -1.843,0 -5.713,-0.185 -6.02,-0.185 -0.307,0 -4.178,0.185 -6.204,0.185 -0.677,0 -0.984,-0.123 -0.984,-0.492 0,-0.245 0.246,-0.368 0.492,-0.368 0.43,0 1.229,-0.062 1.904,-0.246 1.352,-0.308 1.966,-1.352 2.089,-3.44 0.122,-1.966 0.122,-3.686 0.122,-13.27 v -10.812 c 0,-5.898 0,-10.75 -0.306,-13.33 -0.245,-1.782 -0.553,-3.134 -1.782,-3.379 -0.553,-0.123 -1.29,-0.245 -1.843,-0.245 -0.369,0 -0.491,-0.186 -0.491,-0.369 0,-0.369 0.307,-0.492 0.982,-0.492 1.843,0 5.714,0.185 6.021,0.185 0.307,0 4.177,-0.185 7.556,-0.185 0.676,0 0.982,0.185 0.982,0.492 0,0.183 -0.122,0.369 -0.491,0.369 -0.553,0 -1.904,0.122 -2.764,0.245 -1.843,0.245 -2.211,1.597 -2.396,3.379 -0.307,2.58 -0.307,7.432 -0.307,13.33 z M 50.77,-40.286 c 1.658,0 2.703,1.228 2.703,2.826 0,1.535 -1.168,2.457 -2.643,2.457 -1.904,0 -2.641,-1.536 -2.641,-2.642 0,-1.167 0.737,-2.641 2.581,-2.641 m 15.759,0 c 1.66,0 2.704,1.228 2.704,2.826 0,1.535 -1.166,2.457 -2.641,2.457 -1.904,0 -2.642,-1.536 -2.642,-2.642 0,-1.167 0.738,-2.641 2.579,-2.641 M 51.616,-60.687 c -0.184,0 -0.307,0.124 -0.184,0.43 l 5.406,16.587 c 0.307,0.921 0.613,0.921 0.921,0 l 5.835,-16.587 c 0.063,-0.246 0.063,-0.43 -0.243,-0.43 z m -8.599,-13.577 c -1.109,-3.071 -2.335,-5.406 -5.163,-5.774 -0.491,-0.062 -1.349,-0.122 -1.782,-0.122 -0.305,0 -0.552,-0.124 -0.552,-0.369 0,-0.369 0.369,-0.492 1.168,-0.492 2.887,0 6.266,0.185 6.942,0.185 0.675,0 3.317,-0.185 4.791,-0.185 0.555,0 0.921,0.123 0.921,0.492 0,0.245 -0.184,0.369 -0.613,0.369 h -0.616 c -1.045,0 -2.334,0.552 -2.334,1.78 0,1.107 0.307,2.58 0.863,4.116 l 3.684,10.874 c 0.124,0.307 0.308,0.493 0.613,0.493 h 13.209 c 0.307,0 0.431,-0.125 0.552,-0.371 l 5.714,-15.112 c 0.368,-0.982 0,-1.535 -0.368,-1.658 -0.246,-0.062 -0.43,-0.185 -0.43,-0.43 0,-0.368 0.676,-0.368 1.841,-0.43 4.24,-0.123 8.725,-0.123 9.647,-0.123 0.673,0 1.228,0.123 1.228,0.492 0,0.306 -0.246,0.369 -0.615,0.369 -0.613,0 -1.535,0.06 -2.457,0.367 -1.291,0.369 -3.072,1.353 -5.283,6.82 -3.748,9.337 -13.393,34.708 -14.314,37.043 -0.737,1.904 -0.981,2.212 -1.352,2.212 -0.368,0 -0.614,-0.369 -1.35,-2.396 z m -206.329,32.191 c -0.921,2.396 -1.659,4.301 -1.659,5.099 0,0.43 0.123,0.922 0.799,1.228 0.553,0.246 1.659,0.308 2.335,0.308 0.429,0 0.614,0.123 0.614,0.43 0,0.307 -0.553,0.43 -1.658,0.43 -2.335,0 -5.099,-0.185 -5.714,-0.185 -0.737,0 -4.238,0.185 -7.187,0.185 -0.984,0 -1.598,-0.062 -1.598,-0.43 0,-0.246 0.123,-0.43 0.491,-0.43 0.37,0 1.414,0 2.336,-0.246 2.149,-0.614 3.072,-1.29 4.422,-4.73 l 15.051,-37.658 c 1.167,-2.949 1.474,-3.809 2.212,-3.809 0.614,0 0.86,0.983 2.579,4.669 1.414,3.011 4.179,9.645 7.926,18.613 3.133,7.557 6.205,14.929 6.881,16.648 1.658,4.179 2.579,5.222 3.378,5.776 1.167,0.737 2.519,0.737 2.949,0.737 0.491,0 0.737,0.123 0.737,0.43 0,0.307 -0.369,0.43 -1.044,0.43 -1.782,0 -4.423,-0.185 -4.792,-0.185 -0.737,0 -3.563,0.185 -6.02,0.185 -0.984,0 -1.352,-0.123 -1.352,-0.492 0,-0.306 0.307,-0.368 0.676,-0.368 0.676,0 1.597,0 2.334,-0.246 0.615,-0.308 0.799,-0.921 0.799,-1.413 0,-0.553 -0.246,-1.413 -0.554,-2.335 -1.35,-4.422 -9.583,-25.862 -13.146,-34.094 z m 42.552,-21.133 c 0,-5.898 0,-10.75 -0.307,-13.33 -0.246,-1.782 -0.553,-3.134 -1.782,-3.379 -0.553,-0.123 -1.29,-0.245 -1.843,-0.245 -0.368,0 -0.491,-0.186 -0.491,-0.369 0,-0.369 0.307,-0.492 0.982,-0.492 0.922,0 2.335,0.123 3.563,0.123 1.291,0.062 2.335,0.062 2.458,0.062 0.922,0 2.396,-0.062 4.792,-0.185 2.396,-0.062 5.774,-0.184 10.382,-0.184 2.396,0 2.887,0 3.317,1.597 0.308,1.29 0.798,5.466 0.798,5.96 0,0.428 0,0.92 -0.368,0.92 -0.307,0 -0.43,-0.245 -0.553,-0.92 -0.43,-2.52 -1.167,-3.748 -2.764,-4.424 -1.597,-0.676 -4.3,-0.676 -5.897,-0.676 -6.021,0 -6.943,0.798 -7.127,5.037 -0.061,1.29 0,8.417 0,10.505 v 5.406 c 0,0.246 0.123,0.43 0.43,0.43 1.045,0 7.126,-0.122 8.785,-0.307 2.396,-0.245 2.949,-1.29 3.195,-2.15 0.245,-0.799 0.245,-1.412 0.245,-2.027 0,-0.307 0.123,-0.553 0.431,-0.553 0.429,0 0.429,0.676 0.429,1.168 0,0.429 0.123,2.702 0.246,3.93 0.184,2.028 0.492,3.072 0.492,3.441 0,0.369 -0.123,0.492 -0.308,0.492 -0.245,0 -0.491,-0.308 -0.921,-0.799 -0.553,-0.615 -1.413,-0.738 -2.887,-0.86 -1.413,-0.123 -8.969,-0.123 -9.768,-0.123 -0.308,0 -0.369,0.184 -0.369,0.614 v 16.955 c 0,0.43 0.123,0.615 0.369,0.615 0.676,0 7.372,-0.062 8.416,-0.185 3.317,-0.368 3.931,-1.106 4.361,-2.088 0.308,-0.738 0.369,-1.782 0.369,-2.211 0,-0.493 0.123,-0.799 0.492,-0.799 0.246,0 0.368,0.368 0.429,0.676 0.123,0.737 0.247,3.44 0.308,4.054 0.185,1.72 0.491,2.457 0.491,2.887 0,0.307 -0.061,0.553 -0.245,0.553 -0.307,0 -0.554,-0.246 -0.86,-0.307 -0.492,-0.123 -1.475,-0.246 -2.642,-0.307 -1.413,-0.062 -13.638,-0.062 -14.068,-0.062 l -2.518,0.123 c -1.352,0.062 -3.01,0.062 -4.424,0.062 -0.676,0 -0.982,-0.123 -0.982,-0.492 0,-0.245 0.245,-0.368 0.491,-0.368 0.553,0 1.597,-0.062 2.088,-0.185 2.028,-0.429 2.519,-1.413 2.642,-3.501 0.123,-1.966 0.123,-3.686 0.123,-13.27 z m 79.935,-18.675 c 3.316,0 6.632,0.737 9.275,2.58 4.238,3.011 5.22,7.679 5.22,10.197 0,4.916 -1.72,8.724 -8.968,14.437 l -1.721,1.352 c -5.896,4.607 -7.494,6.819 -7.494,10.32 0,4.485 3.319,7.126 7.556,7.126 5.653,0 7.311,-2.579 7.68,-3.255 0.367,-0.676 0.736,-2.334 0.799,-3.072 0.061,-0.491 0.123,-0.799 0.49,-0.799 0.309,0 0.432,0.431 0.432,1.414 0,4.177 0.244,6.205 0.244,6.511 0,0.307 -0.123,0.43 -0.615,0.43 -0.49,0 -0.983,0.062 -2.149,0.307 -1.537,0.369 -3.318,0.615 -5.713,0.615 -7.802,0 -12.716,-4.485 -12.716,-11.058 0,-4.178 1.475,-7.986 7.986,-13.331 l 2.764,-2.273 c 5.283,-4.361 7.064,-6.818 7.064,-11.058 0,-3.931 -2.887,-8.17 -8.785,-8.17 -4.115,0 -8.17,1.72 -9.091,6.265 -0.184,0.862 -0.184,1.721 -0.184,2.274 0,0.492 -0.062,0.675 -0.43,0.675 -0.308,0 -0.431,-0.307 -0.492,-0.982 -0.06,-0.983 -0.306,-3.439 -0.306,-6.512 0,-1.659 0.062,-1.905 0.921,-2.335 2.518,-1.228 5.344,-1.658 8.233,-1.658 m 31.973,29.487 c 0,9.584 0,11.304 0.123,13.27 0.125,2.15 0.617,3.194 2.275,3.501 0.736,0.123 1.104,0.185 1.534,0.185 0.246,0 0.492,0.123 0.492,0.368 0,0.369 -0.308,0.492 -0.984,0.492 -1.842,0 -5.711,-0.185 -6.02,-0.185 -0.305,0 -4.176,0.185 -6.202,0.185 -0.677,0 -0.985,-0.123 -0.985,-0.492 0,-0.245 0.246,-0.368 0.492,-0.368 0.43,0 1.229,-0.062 1.904,-0.246 1.353,-0.308 1.965,-1.352 2.089,-3.44 0.122,-1.966 0.122,-3.686 0.122,-13.27 v -10.812 c 0,-5.898 0,-10.75 -0.306,-13.33 -0.246,-1.782 -0.552,-3.134 -1.784,-3.379 -0.55,-0.123 -1.289,-0.245 -1.841,-0.245 -0.368,0 -0.49,-0.186 -0.49,-0.369 0,-0.369 0.306,-0.492 0.983,-0.492 1.842,0 5.713,0.185 6.018,0.185 0.309,0 4.178,-0.185 7.557,-0.185 0.676,0 0.983,0.185 0.983,0.492 0,0.183 -0.124,0.369 -0.492,0.369 -0.554,0 -1.903,0.122 -2.764,0.245 -1.843,0.245 -2.21,1.597 -2.397,3.379 -0.307,2.58 -0.307,7.432 -0.307,13.33 z m 31.718,15.175 7.724,-0.124 c 5.887,-0.123 7.36,-1.535 7.544,-3.379 l 0.059,-0.675 c 0.066,-0.86 0.191,-1.044 0.504,-1.044 0.25,0 0.441,0.245 0.441,0.798 0,0.676 0.187,4.914 0.187,6.758 0,0.368 0,0.737 -0.315,0.737 -0.25,0 -0.817,-0.185 -1.737,-0.307 -0.98,-0.185 -2.389,-0.308 -4.352,-0.308 H 9.9 c -0.736,0 -3.07,0.123 -4.85,0.308 -1.658,0.122 -2.275,0.737 -2.704,0.737 -0.245,0 -0.492,-0.799 -0.616,-1.167 -0.122,-0.491 -1.35,-5.775 -1.35,-6.389 0,-0.369 0.122,-0.554 0.306,-0.554 0.246,0 0.431,0.123 0.615,0.615 0.186,0.43 0.37,0.86 1.045,1.904 0.983,1.475 2.457,1.905 6.266,1.966 l 9.092,0.124 v -25.987 c 0,-5.898 0,-10.75 -0.308,-13.33 -0.246,-1.782 -0.552,-3.134 -1.78,-3.379 -0.553,-0.123 -1.291,-0.245 -1.845,-0.245 -0.369,0 -0.489,-0.186 -0.489,-0.369 0,-0.369 0.306,-0.492 0.982,-0.492 1.844,0 5.713,0.185 6.019,0.185 0.307,0 4.174,-0.185 7.547,-0.185 0.676,0 0.981,0.185 0.981,0.492 0,0.183 -0.122,0.369 -0.489,0.369 -0.552,0 -1.901,0.122 -2.759,0.245 -1.84,0.245 -2.209,1.597 -2.392,3.379 -0.305,2.58 -0.305,7.432 -0.305,13.33 z m 75.706,0 7.728,-0.124 c 5.886,-0.123 7.357,-1.535 7.54,-3.379 l 0.062,-0.675 c 0.063,-0.86 0.188,-1.044 0.505,-1.044 0.25,0 0.437,0.245 0.437,0.798 0,0.676 0.189,4.914 0.189,6.758 0,0.368 0,0.737 -0.314,0.737 -0.25,0 -0.817,-0.185 -1.736,-0.307 -0.981,-0.185 -2.393,-0.308 -4.353,-0.308 H 85.609 c -0.736,0 -3.07,0.123 -4.85,0.308 -1.658,0.122 -2.276,0.737 -2.704,0.737 -0.248,0 -0.492,-0.799 -0.616,-1.167 -0.122,-0.491 -1.351,-5.775 -1.351,-6.389 0,-0.369 0.123,-0.554 0.307,-0.554 0.247,0 0.43,0.123 0.615,0.615 0.183,0.43 0.37,0.86 1.045,1.904 0.983,1.475 2.458,1.905 6.266,1.966 l 9.092,0.124 v -25.987 c 0,-5.898 0,-10.75 -0.308,-13.33 -0.246,-1.782 -0.552,-3.134 -1.783,-3.379 -0.551,-0.123 -1.289,-0.245 -1.842,-0.245 -0.368,0 -0.492,-0.186 -0.492,-0.369 0,-0.369 0.309,-0.492 0.985,-0.492 1.841,0 5.713,0.185 6.019,0.185 0.308,0 4.175,-0.185 7.547,-0.185 0.676,0 0.981,0.185 0.981,0.492 0,0.183 -0.122,0.369 -0.488,0.369 -0.553,0 -1.902,0.122 -2.762,0.245 -1.84,0.245 -2.207,1.597 -2.39,3.379 -0.308,2.58 -0.308,7.432 -0.308,13.33 z m -176.745,0.649 c 1.895,0.022 6.061,0.337 9.401,-3.065 3.339,-3.402 3.527,-7.623 3.527,-9.702 0,-5.795 -4.76,-10.135 -10.871,-10.135 -2.524,0 -5.311,0.43 -6.231,0.982 -0.308,0.185 -0.431,0.43 -0.431,0.738 v 20.077 c 0,0.368 0.185,0.613 0.492,0.737 0.615,0.184 2.271,0.347 4.113,0.368"
             style="fill:#9d1c42;fill-opacity:1;fill-rule:evenodd;stroke:none"
             id="path22"
             inkscape:connector-curvature="0" /></g><g
           id="g24"
           transform="translate(508.5,9.9092)"><path
             d="M 0,0 C 1.183,0.266 1.852,0.572 2.824,1.295 4.221,2.332 4.893,3.254 5.451,4.9 5.648,2.943 5.328,1.074 3.566,0.119 2.342,-0.543 1.254,-0.393 0,0 m -4.434,13.996 c 2.895,2.828 3.733,6.223 2.489,10.074 -0.766,2.368 -1.768,3.705 -3.823,5.106 0.59,0.648 0.948,0.996 1.61,1.57 0.558,0.484 0.887,0.744 1.49,1.17 l 0.723,-1.943 C -1.02,27.488 0.391,25.957 0.457,23.611 0.576,19.414 -2.037,15.883 -4.434,13.996 M 38.279,69.524 C 33.766,61.849 27.85,58.098 24.941,58.15 c 0.534,0.823 0.709,1.953 0.659,2.615 -2.605,-0.049 -4.358,1.226 -5.667,3.459 -1.056,1.797 -0.75,5.291 -0.75,5.291 -2.375,0.334 -3.745,-2.104 -3.745,-4.354 V 42.742 c 0,-1.687 0.183,-2.81 0.792,-3.996 2.436,-4.754 7.874,-7.666 12.418,-7.066 -2.003,-2.205 -4.025,-3.739 -7.253,-4.084 -1.832,-0.196 -2.957,-0.059 -4.69,0.566 2.233,-2.025 4.465,-3.066 7.504,-2.519 3.106,0.556 4.875,3.302 6.479,3.748 0.976,0.271 1.826,0.115 2.958,-0.104 -1.41,-0.156 -2.427,-0.93 -3.126,-1.857 -0.58,-0.768 -0.727,-2.123 -0.768,-2.94 1.019,-0.244 2.143,-0.304 3.371,0.168 0.922,0.354 1.428,0.701 2.088,1.438 1.395,-0.914 2.31,-3.268 2.31,-3.268 -1.349,0.568 -2.779,0.619 -4.042,0.19 -3.854,-1.313 -5.416,-3.797 -12.754,-2.506 -3.219,0.566 -4.245,2.855 -6.848,3.252 0.873,-0.524 1.391,-1.268 1.766,-2.352 0.275,-0.797 0.332,-1.312 0.23,-2.15 4.19,1.025 6.772,-1.375 9.565,-1.557 3.722,-0.242 4.183,3 10.103,2.934 1.85,-0.022 4.459,-1.315 5.268,-3.352 -1.975,0.934 -4.895,0.662 -6.457,0.229 -2.424,-0.67 -3.872,-1.479 -5.584,-3.358 1.75,-0.689 2.871,-0.885 4.753,-0.83 1.59,0.047 2.516,0.235 4,0.809 -2.087,-1.996 -4.097,-3.104 -7.368,-4.219 -2.192,-0.746 -3.637,-0.488 -5.882,-0.01 0.663,0.356 1.02,1.004 1.02,1.004 -3.328,0.576 -3.623,2.576 -6.314,3.125 -0.715,0.145 -1.127,0.199 -1.854,0.246 2.709,-5.08 8.873,-8 13.773,-6.853 2.354,0.549 5.45,1.533 7.833,4 C 38.016,7.932 36.705,6.096 33.834,4.824 29.996,3.125 27.021,2.828 23.084,4.309 24.83,2.766 26.834,2.121 29.5,1.643 31.25,1.328 32.289,1.289 34.059,1.475 29.5,-1.297 22.037,0.184 17.123,3.834 c -3.5,2.6 -5.437,5.201 -6.939,9.473 0.545,-4.649 1.568,-9.703 6.212,-12.627 2.19,-1.379 4.288,-2.291 6.311,-2.039 -1.689,-1.166 -4.125,-1.463 -6.087,-1.463 -3.915,0 -7.559,3.668 -9.249,7.982 0.356,-4.83 -1.549,-7.982 -4.926,-7.982 -1.904,0 -2.886,0.834 -4.715,0.855 -1.146,0.012 -1.966,-0.238 -3.126,-0.705 0.539,1.193 0.77,1.986 1.73,2.875 1.978,1.83 5.766,1.844 7.162,4.938 0.899,1.984 0.754,3.349 0.483,5.562 -1.417,-3.978 -4,-5.814 -8.399,-7.832 -2.402,-1.103 -3.623,-3.463 -4.168,-5.48 -0.209,2.701 -0.062,4.505 1.356,6.812 1.689,2.752 5.752,3.539 7.42,6.375 1.294,2.199 1.587,3.799 1.585,6.352 -0.88,-3.002 -2.193,-5.166 -3.755,-6.248 -3.36,-2.325 -6.934,-3.295 -8.581,-6.17 -1.335,-2.332 -1.412,-4.141 -0.957,-6.766 -1.797,1.697 -2.439,3.551 -2.066,5.996 0.32,2.1 1.145,3.412 2.898,4.608 -2.488,-0.252 -4.22,-1.659 -4.978,-4.041 -0.613,-1.93 -0.375,-3.475 0.79,-5.131 -4.231,1.109 -3.925,6.988 -1.25,9.877 4.587,4.957 12.712,4.588 9.313,13.648 -0.4,-3.4 -0.984,-5.392 -3.54,-7.191 -4.063,-2.854 -10.332,-2.561 -11.463,-9.313 -0.328,5.188 1.263,6.871 4.273,9.711 1.858,1.752 5.375,2.606 5.145,7.623 -1.165,-2.75 -2.815,-3.853 -5.103,-4.851 -2.649,-1.155 -4.272,-0.627 -6.458,-3.399 -0.104,2.024 0.588,3.912 2.5,5.047 1.752,1.039 3.623,0.811 4.955,2.807 0,0 -1.514,0.586 -3.707,-0.266 2.089,2.625 3.623,1.953 5.69,2.953 1.271,0.614 1.787,1.151 2.708,2.108 -1.813,0.209 -3.523,0.234 -5.375,-0.209 -2.184,-0.524 -4.523,-2.373 -4.523,-2.373 1.335,3.742 6.57,6.898 11.729,8.355 6.994,1.975 9.831,2.686 11.136,5.106 0.895,1.658 1.055,2.203 1.055,6.033 v 22.159 c 0,2.529 -4.015,1.75 -5.197,0.568 -1.068,-1.068 -1.416,-2.361 -0.588,-4.072 -5.033,-0.066 -6.379,3.897 -6.379,3.897 -0.033,-0.44 -0.041,-0.895 -0.037,-1.372 -1.784,0.87 -2.733,1.733 -3.763,3.43 -0.65,1.072 -0.919,1.772 -1.153,3.004 -1.567,-1.242 -5.721,-1.641 -6.391,-1.15 -1.701,1.241 -2.687,4.413 -3.125,7.582 -0.404,2.928 -0.227,4.747 0.733,7.542 -2.391,4.275 -2.918,9.2 -2.918,14.208 0,4.184 2.55,9.517 6.043,12.917 1.418,6.993 8.966,11.18 14.484,11.18 5.24,0 9.564,-3.006 12.131,-8.605 2.385,5.513 8.071,8.605 13.885,8.605 5.436,0 9.209,-2.059 12.318,-6.518 2.543,-0.533 4.141,-1.145 5.938,-3.022 2.382,-2.489 4.089,-4.801 4.197,-8.978 0.029,-1.154 -0.5,-1.766 -1.121,-2.738 2.075,-2.94 2.99,-5.131 2.99,-8.73 0,-3.68 -0.334,-5.578 -1.977,-8.604 0.178,-0.35 0.258,-0.562 0.356,-0.941 0.14,-0.547 0.174,-0.877 0.143,-1.441 -1.182,-0.39 -2.485,-0.31 -2.809,-1.511 -0.285,-1.048 1.937,-6.205 -1.69,-12.73 m -22.043,0.479 c 0.243,2.175 1.215,4.218 2.584,5.779 0.715,-0.196 1.258,-0.479 1.961,-0.992 0.514,-0.375 0.84,-0.67 1.174,-1.09 -2.324,-0.408 -4.635,-1.856 -5.719,-3.697 m 13.512,2.974 c 0.348,-2.706 -0.193,-5.82 -1.512,-8.021 0.299,1.852 0.197,3.998 -0.474,5.709 0.754,0.379 1.213,0.838 1.664,1.637 0.139,0.245 0.244,0.461 0.322,0.675 m -4.545,5.704 c 0.254,-0.029 0.508,-0.076 0.76,-0.141 1.523,-0.397 2.578,-1.604 3.201,-3.196 -0.919,-0.425 -1.514,-0.866 -2.297,-1.673 -0.281,-0.289 -0.471,-0.505 -0.664,-0.766 -0.39,0.31 -0.84,0.549 -1.349,0.695 -0.291,0.082 -0.59,0.141 -0.895,0.176 0.043,1.236 0.194,2.034 0.6,3.287 0.212,0.659 0.386,1.104 0.644,1.618 m -3.951,-0.892 c 1.037,0.586 2.156,0.922 3.281,0.928 -0.342,-0.386 -0.592,-0.793 -0.871,-1.368 -0.193,-0.403 -0.283,-0.642 -0.402,-1.073 -0.319,0.499 -0.574,0.756 -1.072,1.073 -0.336,0.213 -0.627,0.355 -0.936,0.44 m -32.17,11.044 c 0.325,0.233 0.65,0.451 0.984,0.651 0.223,-0.313 0.358,-0.546 0.545,-0.931 0.409,-0.838 0.594,-1.437 0.671,-2.254 -0.815,-0.361 -1.546,-0.851 -2.194,-1.437 -0.203,0.456 -0.295,0.818 -0.361,1.381 -0.121,1.023 -0.03,1.753 0.355,2.59 m 1.455,0.918 c 1.647,0.884 3.455,1.314 5.61,1 l 0.175,-0.026 c -0.452,-0.776 -0.834,-1.301 -1.486,-2.076 -0.486,-0.575 -0.781,-0.885 -1.333,-1.397 -0.585,0.532 -0.921,0.825 -1.526,1.333 -0.565,0.474 -0.93,0.771 -1.44,1.166 M -2.4,90.439 C -0.817,89.984 0.643,89.175 1.907,88.037 1.74,87.295 1.588,86.524 1.503,85.854 1.367,84.805 1.308,84.082 1.299,83.204 c -1.44,1.74 -3.088,3.036 -5.012,3.542 z M 2.787,87.153 C 4.359,85.399 5.535,83.055 6.123,80.182 5.635,80.612 5.15,80.864 4.426,81.098 3.75,81.317 3.245,81.397 2.65,81.357 l -0.455,0.67 c 0.229,0.687 0.354,1.266 0.481,2.123 0.173,1.181 0.207,1.962 0.111,3.003 M 6.213,79.715 C 6.531,77.93 6.627,75.952 6.457,73.792 5.653,75.729 4.764,77.708 3.754,79.525 Z m -18.227,3.965 c -0.162,-0.205 -0.318,-0.416 -0.466,-0.633 l -1.504,1.86 -1.494,0.64 c 0.218,0.551 0.718,1.547 1.052,1.926 -0.615,0.27 -1.377,1.874 -1.662,2.702 0.797,-0.129 1.268,-0.144 2.07,-0.064 0.54,0.054 0.844,0.111 1.367,0.257 l -1.431,5.045 c 1.287,-0.386 2,-0.711 3.135,-1.43 0.946,-0.599 1.788,-0.775 2.233,-1.801 0.114,-0.27 0.175,-0.462 0.213,-0.708 -1.649,-0.758 -2.979,-1.977 -3.673,-3.638 -0.097,-0.717 -0.121,-1.129 -0.106,-1.853 0.018,-0.914 0.079,-1.469 0.266,-2.303 m -1.589,-2.649 c -1.127,-2.495 -1.575,-5.351 -1.45,-7.684 -1.539,0.806 -2.773,1.811 -3.69,3.003 0.427,0.117 0.78,0.234 1.286,0.42 0.717,0.262 1.114,0.431 1.799,0.768 -0.104,1.058 -0.291,1.673 -0.795,2.611 -0.327,0.609 -0.797,0.792 -1.031,1.443 -0.153,0.424 -0.197,0.69 -0.194,1.141 0.602,0.092 0.973,0.066 1.553,-0.109 0.507,-0.153 0.749,-0.355 1.197,-0.631 0.553,-0.339 0.883,-0.576 1.325,-0.962 m -5.78,-3.739 c -0.831,1.409 -1.283,3.037 -1.345,4.865 0.832,-0.491 1.348,-0.942 2.04,-1.75 0.654,-0.768 0.966,-1.272 1.364,-2.199 -0.313,-0.226 -0.504,-0.337 -0.854,-0.5 -0.444,-0.208 -0.819,-0.34 -1.205,-0.416 m -1.305,6.517 c 0.099,1.182 0.331,2.018 0.871,3.227 0,1.301 0.313,2.703 0.801,4.043 l 2.045,-3.481 -0.867,-1.986 c -0.705,-0.385 -1.096,-0.619 -1.769,-1.059 -0.438,-0.285 -0.721,-0.48 -1.081,-0.744 m 1.948,7.975 c 0.828,1.987 1.998,3.768 3.029,4.781 0.148,-0.784 0.269,-1.362 0.508,-2.261 0.287,-1.076 0.492,-1.675 0.93,-2.699 -0.661,0.127 -1.047,0.156 -1.719,0.128 -0.6,-0.025 -0.926,-0.261 -1.526,-0.224 -0.496,0.03 -0.837,0.103 -1.222,0.275 m 4.478,5.996 c 1.651,1.176 3.619,1.97 5.69,2.31 -0.215,-1.383 -0.348,-2.285 -0.561,-3.779 l -0.256,-1.847 -0.949,0.096 c -0.547,0.349 -0.847,0.558 -1.365,0.949 -1.081,0.815 -1.717,1.374 -2.559,2.271 m 7.285,2.481 c 1.597,0.08 3.219,-0.111 4.776,-0.602 -0.3,0.398 -0.682,0.798 -1.121,1.159 l 0.021,1.55 c 0.129,0.529 0.192,0.83 0.289,1.365 0.084,0.455 0.133,0.752 0.186,1.147 l 0.2,-0.03 c 0.482,-0.077 0.948,-0.169 1.398,-0.277 0.316,-0.718 0.882,-1.959 1.205,-2.334 0.261,-0.306 0.418,-0.472 0.706,-0.756 0,0 -0.661,-1.181 -0.772,-1.713 -0.227,-1.092 -0.11,-2.119 0.321,-2.928 l -2.099,1.496 c -0.184,-0.595 -0.373,-1.19 -0.311,-1.496 0.248,-1.202 0.368,-1.911 0.277,-3.134 -0.046,-0.589 -0.103,-0.979 -0.221,-1.469 -2.066,0.333 -4.181,0.129 -5.97,-0.589 -0.096,0.648 -0.089,1.132 0.004,1.866 0.11,0.853 0.488,1.269 0.61,2.121 0.091,0.639 -0.036,1.016 0.064,1.654 0.072,0.467 0.256,2.041 0.437,2.97 m 2.528,1.316 c -0.485,0.261 -1.004,0.462 -1.539,0.57 -0.392,0.081 -0.776,0.141 -1.149,0.183 0.092,0.424 0.116,0.808 0.094,1.339 -0.02,0.495 -0.066,0.847 -0.175,1.237 0.601,0.085 1.221,0.133 1.847,0.142 l 1.091,-1.09 c 0.177,-0.699 0.177,-1.148 0,-1.847 -0.052,-0.208 -0.105,-0.376 -0.169,-0.534 m -3.787,0.828 c -2.596,0.059 -4.69,-0.757 -6.534,-1.804 1.424,2.083 3.714,3.475 6.383,4.089 0.147,-0.37 0.207,-0.685 0.236,-1.149 0.026,-0.451 0.007,-0.771 -0.085,-1.136 m 10.606,0.782 c 2.023,-1.16 3.538,-2.856 4.56,-5.148 C 6.813,97.708 6.627,97.401 6.354,97.066 6.162,96.829 6.033,96.706 5.791,96.521 l -2.072,1.814 c 0.115,0.655 0,1.126 -0.403,1.655 -0.316,0.416 -0.603,0.612 -1.107,0.756 -0.061,0.579 -0.061,0.914 0,1.493 0.041,0.378 0.086,0.654 0.161,0.948 M 8.518,89.966 c 0.013,-0.399 0.019,-0.807 0.019,-1.223 0,-2.029 0.041,-3.795 0.086,-5.513 l -2.119,0.785 c -0.256,0.71 -0.524,1.36 -0.803,1.951 0.092,0.556 0.199,0.979 0.397,1.607 0.295,0.936 0.517,1.455 0.994,2.314 z M 8.662,81.741 C 8.723,79.417 8.77,77.067 8.716,74.147 8.295,77.208 7.783,79.743 7.193,81.845 Z M 4.85,87.555 c -0.893,1.456 -1.871,2.457 -2.912,3.16 0.789,0.833 1.311,1.32 2.23,2.095 0.715,0.601 1.135,0.923 1.898,1.461 C 5.928,92.892 5.818,92.116 5.566,90.752 5.33,89.478 5.158,88.703 4.85,87.555 m -3.608,3.582 c -0.548,0.298 -1.11,0.526 -1.687,0.707 -0.194,0.659 -0.293,1.153 -0.398,1.928 -0.108,0.784 -0.135,1.234 -0.129,2.025 0.452,-0.225 0.701,-0.376 1.109,-0.673 0.308,-0.226 0.476,-0.365 0.756,-0.628 0.635,0.274 1.06,0.344 1.75,0.289 C 3.18,94.741 3.492,94.655 3.977,94.417 3.205,93.82 2.808,93.42 2.209,92.649 1.773,92.087 1.532,91.713 1.242,91.137 m -20.989,4.557 c 0.036,4.11 0.862,6.876 3.073,9.99 l 0.618,-0.201 c 0.121,-0.632 0.246,-0.988 0.546,-1.558 0.274,-0.52 0.485,-0.819 0.864,-1.215 -2.268,-1.967 -4.012,-4.479 -5.101,-7.016 m 3.923,11.121 c 1.048,1.321 2.121,2.455 3.261,3.4 0.184,-0.59 0.323,-1.094 0.428,-1.598 l 1.991,-1.929 0.623,-0.95 c -1.545,-0.544 -2.967,-1.341 -4.243,-2.312 -0.371,0.559 -0.987,1.477 -1.062,1.814 -0.074,0.334 -0.542,1.167 -0.979,1.566 z m 4.648,4.44 c 2.379,1.586 5.051,2.412 8.229,2.412 1.086,0 2.086,-0.118 3.005,-0.334 l 0.014,-0.62 c -0.156,-1.021 -0.327,-1.598 -0.756,-2.538 -0.308,-0.679 -0.525,-1.049 -0.962,-1.654 -0.362,0.312 -3.847,2.917 -4.321,2.923 -0.328,-0.987 -1.697,-4.425 -2.359,-5.342 l -0.25,-0.066 c -0.258,0.96 -0.575,1.536 -1.262,2.306 -0.567,0.638 -0.975,0.95 -1.736,1.334 l 0.257,0.756 z m 13.271,1.381 c 2.03,-0.935 3.525,-2.429 4.522,-4.163 -0.121,-0.187 -0.247,-0.362 -0.424,-0.586 -0.25,-0.322 -0.404,-0.497 -0.691,-0.788 -0.322,0.213 -0.49,0.363 -0.738,0.66 -0.576,0.691 -1.658,3.114 -2.088,3.808 -0.252,0.404 -0.43,0.727 -0.581,1.069 m 5.246,-5.665 c 0.904,-2.304 1.052,-4.843 0.52,-6.992 -2.398,3.369 -5.136,5.33 -8.689,6.134 l 1.445,5.3 c 1.203,-0.94 1.811,-1.608 2.636,-2.892 0.55,-0.858 1.468,-2.816 2.151,-4.533 0.117,0.373 0.284,0.742 0.514,1.175 0.432,0.801 0.799,1.279 1.423,1.808 m -9.675,-0.593 c -0.717,0.093 -1.465,0.146 -2.25,0.161 -0.969,0.017 -1.906,-0.064 -2.81,-0.231 l 1.478,2.546 0.77,0.981 c 0.708,-0.564 1.076,-0.934 1.641,-1.64 0.534,-0.67 0.839,-1.133 1.171,-1.817 M 2.99,73.489 c -0.487,0.56 -1.062,1.022 -1.682,1.395 -0.417,1.42 -1.048,3.021 -1.276,3.464 -0.358,0.701 -0.75,1.083 -1.249,1.543 -0.626,-0.334 -1.045,-0.543 -1.584,-1.084 -0.361,-0.359 -1.242,-1.098 -1.479,-1.549 -0.286,0.559 -0.475,0.864 -0.853,1.367 -0.763,1.022 -1.314,1.542 -2.377,2.249 -0.322,-0.29 -0.468,-0.53 -0.578,-0.949 -0.082,-0.314 -0.09,-0.512 -0.03,-0.833 -0.794,0.061 -1.253,0.19 -1.964,0.545 -0.668,0.336 -1.098,0.645 -1.52,1.127 0.364,0.454 0.782,0.861 1.259,1.205 7.379,5.334 13.511,-1.707 13.333,-8.48 m -8.634,2.283 c -0.131,-0.045 -0.257,-0.096 -0.379,-0.148 -1.139,-0.508 -2.092,-1.187 -2.849,-1.993 l -4.438,-0.566 c -0.303,1.917 -0.125,4.026 0.618,5.821 1.57,-0.161 2.548,-0.443 4.041,-1.145 1.283,-0.605 2.025,-1.084 3.007,-1.969 M -9.975,72.14 c -0.647,-1.145 -0.992,-2.442 -1.007,-3.807 -0.901,0.756 -1.577,1.916 -1.99,3.264 z m -12.226,20.923 c -0.804,1.491 -1.408,2.945 -1.76,4.384 0.331,0.136 0.622,0.214 1.047,0.293 0.598,0.111 1.021,0.14 1.529,0.086 -0.343,-1.428 -0.59,-2.96 -0.816,-4.763 m -1.98,5.482 c -0.386,2.497 0.023,4.966 1.484,7.532 0.125,0.221 0.259,0.443 0.404,0.662 0.215,-0.534 0.443,-0.924 0.84,-1.465 0.36,-0.491 1.552,-1.202 2.273,-1.694 -0.781,-1.478 -1.346,-2.828 -1.781,-4.222 z m 2.788,9.429 c 1.12,1.388 2.525,2.682 3.999,3.761 0.042,-0.235 0.105,-0.469 0.197,-0.758 0.142,-0.446 0.769,-1.587 1.167,-2.286 -0.79,-1.114 -1.503,-2.253 -2.204,-3.432 -0.602,0.576 -1.016,0.966 -1.694,1.59 -0.246,0.226 -1.036,0.79 -1.465,1.125 m 5.854,4.986 c 1.865,1.098 3.7,1.785 5.09,1.827 -1.729,-1.466 -3.114,-2.919 -4.305,-4.401 -0.03,0.356 -0.076,0.66 -0.16,1.091 -0.057,0.28 -0.365,0.928 -0.625,1.483 M 14.635,70.503 c -0.502,0.941 -0.982,1.534 -0.871,2.595 0.066,0.64 0.199,1.367 0.402,2.143 0.178,-0.178 0.35,-0.311 0.607,-0.477 0.413,-0.267 0.727,-0.414 1.131,-0.513 -0.64,-1.401 -0.986,-2.797 -1.269,-3.748 M 14.4,76.067 c 0.456,1.469 1.139,3.057 2.067,4.534 1.848,2.949 4.109,5.38 7.131,6.489 0.265,-1.043 1.244,-3.62 1.244,-3.62 -0.041,-0.463 -0.074,-1.874 -0.059,-2.714 -2.978,0.202 -5.125,-1.589 -7.269,-3.977 -0.368,-0.411 -0.688,-0.854 -0.967,-1.31 -0.565,-0.091 -1.037,-0.006 -1.619,0.274 -0.221,0.107 -0.36,0.189 -0.528,0.324 m 10.475,11.402 c 0.926,0.21 1.92,0.303 2.986,0.26 1.905,-0.076 3.932,-0.933 5.535,-2.199 0.088,-0.557 0.196,-0.957 -0.037,-1.728 -0.271,-0.89 -0.429,-1.552 -0.959,-2.482 -0.377,1.222 -0.962,3.096 -1.261,3.109 -0.442,0.021 -2.67,-0.804 -3.51,-0.94 0.068,-0.403 0.15,-0.821 0.256,-1.322 0.496,0.151 2.123,0.677 2.666,0.863 0.279,-0.753 1.025,-3.166 1.069,-4.118 0.579,0.311 0.603,0.327 1.259,0.374 0.379,0.027 1.068,-0.045 1.443,-0.112 -0.222,-0.487 -0.273,-1.08 -0.514,-1.559 -0.433,-0.856 -0.816,-1.339 -1.546,-1.96 -0.248,-0.211 -0.43,-0.336 -0.682,-0.456 l -0.092,0.388 c -0.771,2.986 -2.726,4.393 -5.525,4.995 0.1,1.356 0.058,2.193 -0.17,3.582 -0.217,1.336 -0.436,2.137 -0.918,3.305 M 37.986,75.893 C 37.953,75.452 37.893,75 37.799,74.539 c -0.447,-2.221 -1.641,-4.515 -3.094,-6.606 -0.187,0.892 -0.56,2.306 -1.272,3.611 -0.467,0.856 -1.077,1.278 -1.576,1.554 -0.021,0.42 -0.06,0.829 -0.119,1.227 1.075,0.843 1.932,1.222 3.346,1.507 1.121,0.225 1.85,0.245 2.902,0.061 m -4.781,-9.945 c -1.614,-1.982 -3.338,-3.652 -4.633,-4.707 1.528,2.321 2.174,3.848 2.774,6.561 0.265,1.199 0.432,2.344 0.5,3.424 0.605,-0.457 0.951,-0.969 1.217,-1.774 0.271,-0.812 0.025,-1.34 0.066,-2.195 0.025,-0.516 0.047,-0.903 0.076,-1.309 M 10.35,77.454 c -0.176,1.501 -0.33,2.939 -0.442,4.355 l 1.948,0.203 c -0.61,-1.888 -1.088,-3.523 -1.506,-4.558 m -0.487,4.985 c -0.097,1.431 -0.147,2.844 -0.127,4.279 0.69,-0.227 1.105,-0.48 1.662,-1 0.395,-0.368 0.594,-0.616 0.864,-1.085 -0.278,-0.451 -0.469,-0.691 -0.842,-1.067 -0.535,-0.539 -0.936,-0.834 -1.557,-1.127 m 0.114,8.182 c 0.041,0.378 0.089,0.759 0.143,1.144 0.419,3.056 3.519,8.126 6.783,10.611 0.458,-0.093 0.831,-0.208 1.361,-0.409 0.794,-0.301 1.228,-0.527 1.931,-1.001 0.034,0.7 0.03,1.098 -0.023,1.798 -0.043,0.598 -0.088,0.988 -0.182,1.495 0.848,0.429 1.7,0.791 2.565,1.079 0.396,-0.184 0.732,-0.39 1.175,-0.705 0.655,-0.465 0.997,-0.782 1.51,-1.399 l 1.104,2.871 0.406,0.026 c 0.102,-1.273 0.068,-2.083 -0.133,-3.411 -0.14,-0.942 -0.263,-1.471 -0.552,-2.379 L 22.33,103.052 21.617,99.3 c -0.953,0.229 -1.497,0.337 -2.467,0.487 -0.992,0.154 -1.556,0.218 -2.556,0.288 0.012,-0.676 0.031,-1.058 0.089,-1.732 0.055,-0.669 0.1,-1.046 0.204,-1.71 -0.871,-0.502 -1.401,-0.737 -2.358,-1.045 -0.828,-0.267 -1.316,-0.376 -2.179,-0.487 -0.178,-0.398 0.338,-0.602 0.935,-1.001 0.42,-0.28 0.504,-0.646 0.78,-1.09 -0.026,-0.253 0.046,-0.516 -0.182,-0.625 -0.842,-0.398 -1.244,-0.57 -2.041,-0.93 z m 17.365,15.528 c 1.736,0.023 3.574,-0.234 5.568,-0.802 l 0.574,-0.175 0.78,-0.693 c -0.86,-0.529 -1.319,-0.884 -2.047,-1.582 -0.75,-0.719 -1.133,-1.178 -1.709,-2.042 -0.738,1.086 -1.137,1.713 -1.803,2.844 -0.566,0.959 -0.91,1.572 -1.363,2.45 m 8.094,-1.785 c 2.027,-1.039 3.55,-2.522 4.736,-4.376 -0.206,-0.412 -0.445,-0.81 -0.706,-1.18 -0.575,-0.811 -0.991,-1.227 -1.804,-1.798 0.035,0.731 -0.318,1.389 -0.525,2.091 -0.254,0.86 -0.436,0.973 -0.787,1.798 -0.553,1.302 -0.784,2.159 -0.914,3.465 m 5.548,-5.81 c 0.381,-0.753 0.721,-1.553 1.028,-2.398 1.312,-3.613 1.564,-6.044 -0.674,-9.831 -0.371,2.294 -1.025,4.064 -2.15,5.616 0.017,0.758 0.105,1.464 0.278,2.402 0.235,1.29 0.942,2.913 1.518,4.211 m -4.32,-4.028 -0.518,0.403 c -0.802,0.604 -1.607,1.103 -2.419,1.502 -0.044,0.626 -0.159,1.122 -0.397,1.824 -0.25,0.729 -0.445,1.131 -0.869,1.776 -0.213,-0.768 -0.344,-1.198 -0.598,-1.953 l -0.287,-0.823 c -2.842,0.788 -5.798,0.454 -9.011,-0.796 -2.577,-1.002 -4.547,-2.606 -6.018,-4.416 -0.508,0.297 -0.809,0.539 -1.242,0.989 -0.567,0.587 -0.838,0.988 -1.174,1.732 0.869,0.326 1.389,0.457 2.307,0.581 0.691,0.093 1.087,0.112 1.783,0.088 -0.053,0.58 -0.076,0.907 -0.112,1.488 -0.037,0.598 -0.051,0.935 -0.072,1.533 0.852,0.036 1.34,0.006 2.18,-0.133 0.744,-0.123 1.162,-0.232 1.871,-0.487 0.221,0.492 0.687,3.314 0.728,3.685 0.397,-0.32 3.372,-2.729 3.934,-2.888 -0.004,0.599 0.021,0.94 0.111,1.533 0.164,1.065 0.346,1.668 0.803,2.644 0.436,-0.459 0.662,-0.742 1.019,-1.266 0.43,-0.636 1.096,-2.256 1.155,-2.601 0.625,0.653 0.973,1.026 1.582,1.692 0.596,0.653 0.93,1.024 1.51,1.688 0.666,-0.485 1.793,-1.9 2.174,-2.63 0.487,-0.933 1.417,-4.602 1.56,-5.165 M 16.363,91.814 C 15.625,90.87 15.018,89.875 14.529,88.885 13.995,87.803 13.52,86.68 13.096,85.569 l -2.389,1.908 0.664,1.245 1.492,0.642 -0.8,1.245 c 0.699,0.446 1.128,0.656 1.908,0.935 0.666,0.237 1.058,0.538 1.759,0.443 0.258,-0.036 0.43,-0.081 0.633,-0.173 m 14.129,-2.431 c -2.151,0.581 -4.258,0.494 -6.234,-0.118 -0.559,0.719 -1.971,1.366 -1.971,1.366 -0.541,0.286 -2.238,0.961 -3.18,1.265 1.513,1.492 3.209,2.61 5.018,3.282 0.463,-0.228 0.809,-0.474 1.271,-0.879 0.62,-0.545 0.926,-0.924 1.333,-1.643 0.308,0.657 0.47,1.034 0.737,1.709 0.237,0.607 0.386,1.018 0.555,1.538 0.432,0.003 0.868,-0.018 1.303,-0.066 0.567,-1.181 1.256,-2.886 1.256,-2.886 l 1.303,-4.098 c -0.443,0.219 -0.906,0.399 -1.391,0.53 M 22.148,88.395 C 19.82,87.186 17.73,85.251 16.029,82.869 l -1.695,1.5 c 0.967,2.503 2.258,4.687 3.783,6.462 z m -6.523,-6.113 c -1.355,-2.028 -2.435,-4.348 -3.158,-6.801 0.162,2.798 0.672,5.412 1.466,7.773 z m 15.146,13.304 c 0.434,-0.104 0.868,-0.233 1.303,-0.389 2.061,-0.739 3.772,-2.148 4.959,-3.88 -0.228,-0.379 -0.465,-0.679 -0.832,-1.077 -0.916,-0.999 -1.691,-1.573 -2.93,-2.245 -0.195,0.144 -0.392,0.281 -0.595,0.41 -0.02,0.95 -0.037,1.863 -0.252,2.814 -0.406,1.8 -0.815,2.9 -1.653,4.367 m 7.106,-5.733 c 1.214,-2.558 1.371,-5.542 0.029,-8.079 -0.738,1.734 -2.093,4.047 -4.008,5.713 z m -60.47,-13.395 c 1.192,-0.908 1.913,-1.366 3.243,-2.058 1.202,-0.627 1.915,-0.931 3.199,-1.366 -1.24,-0.448 -2.008,-0.585 -3.327,-0.596 -0.622,-0.004 -0.975,0.021 -1.589,0.115 0,0 -1.496,1.719 -1.526,3.905 m 32.57,23.271 c -0.331,1.145 -0.536,2.416 -0.581,3.713 l 1.445,-0.39 c -0.026,0.486 -0.046,0.76 -0.091,1.244 -0.078,0.871 -0.143,1.362 -0.287,2.225 1.096,-0.283 1.717,-0.429 2.822,-0.665 0.678,-0.144 1.104,-0.23 1.711,-0.342 -1.92,-1.44 -3.572,-3.357 -5.019,-5.785 m -0.164,7.75 c 0.47,1.81 1.355,3.459 2.759,4.642 1.537,1.295 3.379,2.423 5.423,3.255 0.009,-0.896 0.103,-1.507 0.357,-2.455 0.162,-0.603 0.339,-0.916 0.533,-1.51 0.269,-0.833 0.408,-1.308 0.625,-2.158 -1.35,0.479 -2.135,0.696 -3.535,0.979 -0.955,0.193 -1.5,0.277 -2.469,0.377 -0.051,-0.404 -0.051,-0.641 0,-1.046 0.107,-0.844 0.785,-1.169 0.824,-2.019 0.022,-0.481 -0.017,-0.768 -0.176,-1.223 z m 9.412,8.354 c 2.843,0.955 6.009,1.33 9.246,0.816 -0.7,-0.312 -1.203,-0.687 -1.83,-1.327 -0.625,-0.637 -0.868,-1.105 -1.289,-1.891 -0.344,-0.64 -0.508,-1.021 -0.737,-1.71 l -1.355,1.001 c -1.047,0.772 -1.676,1.159 -2.688,1.975 -0.547,0.44 -0.894,0.733 -1.347,1.136 m 10.425,0.589 c 0.845,-0.191 1.688,-0.443 2.533,-0.763 1.149,-0.437 2.229,-1.034 3.202,-1.75 -0.834,-0.772 -1.418,-1.251 -2.41,-1.989 -0.444,-0.33 -0.697,-0.51 -1.157,-0.819 -0.925,1.183 -1.339,1.981 -1.775,3.42 -0.223,0.737 -0.327,1.225 -0.393,1.901 m 6.61,-3.214 c 3.053,-2.666 4.732,-6.578 3.566,-10.243 -1.488,1.586 -2.98,2.826 -4.562,3.753 -0.459,0.786 -0.629,1.439 -0.66,2.432 -0.053,1.711 0.462,2.985 1.656,4.058 m -3.908,-5.168 c -1.412,0.469 -2.918,0.739 -4.565,0.832 0.012,0.57 0.01,0.943 -0.004,1.56 -0.025,0.981 -0.058,1.535 -0.154,2.512 0.76,-0.173 1.187,-0.35 1.848,-0.766 0.861,-0.545 1.273,-1.007 1.849,-1.849 0.557,-0.815 0.813,-1.382 1.026,-2.289 m -7.827,0.798 c -1.441,-0.104 -2.787,-0.326 -4.048,-0.67 0.009,0.434 0.002,0.81 -0.024,1.343 -0.068,1.349 -0.17,2.114 -0.465,3.433 0.91,-0.543 1.403,-0.898 2.203,-1.591 1.03,-0.891 1.629,-1.528 2.334,-2.515 m -5.419,-1.105 c -1.331,-0.484 -2.559,-1.121 -3.696,-1.919 -0.447,1.577 -0.652,3.222 -0.29,3.388 0.917,0.126 1.501,0.049 2.357,-0.309 0.728,-0.306 1.166,-0.612 1.629,-1.16 m -6.203,13.112 c 1.001,0.728 2.16,1.193 3.435,1.456 0.486,-0.362 1.012,-1.026 1.293,-1.305 0.666,-0.663 1.092,-1.214 1.076,-2.152 -0.006,-0.344 -0.053,-0.633 -0.152,-0.896 l -0.872,-0.389 c -0.408,0.556 -0.818,0.915 -1.488,1.337 -0.479,0.302 -2.479,1.473 -3.292,1.949 m 5.118,1.687 c 0.585,0.044 1.188,0.056 1.805,0.042 3.121,-0.074 5.129,-0.892 7.412,-3.022 -2.029,0.024 -3.65,-0.101 -5.226,-0.456 l -2.229,0.566 z m -2.583,-4.615 c 0.433,-0.285 0.648,-0.568 0.804,-1.06 -2.664,-1.372 -4.289,-2.702 -6.408,-5.163 -0.1,1.859 -0.422,3.892 0.508,5.965 0.422,0.178 0.834,0.249 1.388,0.258 0.676,0.01 2.02,0.171 2.358,0.309 0.5,0.203 0.898,-0.014 1.35,-0.309 m -33.678,-3.029 c 0.802,1.434 1.842,2.824 3.094,4.012 0.669,-0.346 1.141,-0.673 1.803,-1.234 0.504,-0.428 0.81,-0.728 1.179,-1.171 -2.01,-0.438 -3.836,-1.196 -5.939,-2.407 -0.008,0.138 -0.027,0.275 -0.059,0.447 z m 4.064,4.86 c 1.916,1.525 4.238,2.568 6.881,2.679 -0.219,-1.135 -0.725,-2.857 -0.956,-3.395 0.136,-0.14 0.792,-1.297 0.971,-2.042 -1.063,-0.016 -2.033,-0.072 -2.945,-0.177 -1.011,0.759 -3.029,2.253 -3.951,2.935 m 8.433,2.65 c 2.698,-0.166 4.614,-0.783 6.051,-1.797 l 0.163,-1.376 c 0,0 -0.711,-1.814 -1.246,-2.929 -0.813,0.226 -1.634,0.391 -2.504,0.503 -0.199,0.503 -0.42,1.009 -0.718,1.324 -0.681,0.715 -1.157,1.062 -2.05,1.488 l 0.156,1.436 z m 7.915,-3.663 c 0.91,-1.258 1.557,-2.813 2.152,-4.623 -1.41,0.779 -2.671,1.371 -3.913,1.81 z M -6.676,66.282 c -1.558,1.268 -1.988,3.231 -1.099,5.033 l 1.322,-0.359 1.31,-1.006 c -0.972,-0.963 -1.413,-2.127 -1.533,-3.668 m -0.134,6.204 c 1.721,1.346 4.692,1.268 6.035,-0.504 -1.395,-0.06 -2.801,-0.836 -3.588,-1.387 l -0.834,1.693 z m 29.892,-0.435 c 0.016,-0.452 0.113,-0.822 0.264,-1.14 -0.2,-0.57 -0.295,-1.058 -0.371,-1.777 -0.143,-1.334 -0.067,-2.141 0.322,-3.426 l 0.761,1.627 0.069,2.535 c 0.707,-0.701 1.576,-1.31 1.943,-2.605 0.323,-1.141 0.182,-2.584 -0.394,-4.073 -2.201,0.143 -3.713,0.883 -4.358,2.739 -0.537,1.548 -0.179,4.894 1.764,6.12"
             style="fill:#9d1c42;fill-opacity:1;fill-rule:evenodd;stroke:none"
             id="path26"
             inkscape:connector-curvature="0" /></g></g></g></g></svg>